G04 #@! TF.GenerationSoftware,KiCad,Pcbnew,(5.1.5-0)*
G04 #@! TF.CreationDate,2020-04-09T11:26:26+02:00*
G04 #@! TF.ProjectId,dxl-fan-module,64786c2d-6661-46e2-9d6d-6f64756c652e,rev?*
G04 #@! TF.SameCoordinates,Original*
G04 #@! TF.FileFunction,Other,Fab,Top*
%FSLAX46Y46*%
G04 Gerber Fmt 4.6, Leading zero omitted, Abs format (unit mm)*
G04 Created by KiCad (PCBNEW (5.1.5-0)) date 2020-04-09 11:26:26*
%MOMM*%
%LPD*%
G04 APERTURE LIST*
%ADD10C,0.150000*%
%ADD11C,0.100000*%
%ADD12C,0.125000*%
%ADD13C,0.075000*%
G04 APERTURE END LIST*
D10*
X70069642Y-47822619D02*
X70117261Y-47775000D01*
X70212500Y-47727380D01*
X70450595Y-47727380D01*
X70545833Y-47775000D01*
X70593452Y-47822619D01*
X70641071Y-47917857D01*
X70641071Y-48013095D01*
X70593452Y-48155952D01*
X70022023Y-48727380D01*
X70641071Y-48727380D01*
X71260119Y-47727380D02*
X71355357Y-47727380D01*
X71450595Y-47775000D01*
X71498214Y-47822619D01*
X71545833Y-47917857D01*
X71593452Y-48108333D01*
X71593452Y-48346428D01*
X71545833Y-48536904D01*
X71498214Y-48632142D01*
X71450595Y-48679761D01*
X71355357Y-48727380D01*
X71260119Y-48727380D01*
X71164880Y-48679761D01*
X71117261Y-48632142D01*
X71069642Y-48536904D01*
X71022023Y-48346428D01*
X71022023Y-48108333D01*
X71069642Y-47917857D01*
X71117261Y-47822619D01*
X71164880Y-47775000D01*
X71260119Y-47727380D01*
X72022023Y-48632142D02*
X72069642Y-48679761D01*
X72022023Y-48727380D01*
X71974404Y-48679761D01*
X72022023Y-48632142D01*
X72022023Y-48727380D01*
X72402976Y-47727380D02*
X73022023Y-47727380D01*
X72688690Y-48108333D01*
X72831547Y-48108333D01*
X72926785Y-48155952D01*
X72974404Y-48203571D01*
X73022023Y-48298809D01*
X73022023Y-48536904D01*
X72974404Y-48632142D01*
X72926785Y-48679761D01*
X72831547Y-48727380D01*
X72545833Y-48727380D01*
X72450595Y-48679761D01*
X72402976Y-48632142D01*
X73402976Y-47822619D02*
X73450595Y-47775000D01*
X73545833Y-47727380D01*
X73783928Y-47727380D01*
X73879166Y-47775000D01*
X73926785Y-47822619D01*
X73974404Y-47917857D01*
X73974404Y-48013095D01*
X73926785Y-48155952D01*
X73355357Y-48727380D01*
X73974404Y-48727380D01*
X74879166Y-47727380D02*
X74402976Y-47727380D01*
X74355357Y-48203571D01*
X74402976Y-48155952D01*
X74498214Y-48108333D01*
X74736309Y-48108333D01*
X74831547Y-48155952D01*
X74879166Y-48203571D01*
X74926785Y-48298809D01*
X74926785Y-48536904D01*
X74879166Y-48632142D01*
X74831547Y-48679761D01*
X74736309Y-48727380D01*
X74498214Y-48727380D01*
X74402976Y-48679761D01*
X74355357Y-48632142D01*
X76117261Y-48727380D02*
X76117261Y-48060714D01*
X76117261Y-48155952D02*
X76164880Y-48108333D01*
X76260119Y-48060714D01*
X76402976Y-48060714D01*
X76498214Y-48108333D01*
X76545833Y-48203571D01*
X76545833Y-48727380D01*
X76545833Y-48203571D02*
X76593452Y-48108333D01*
X76688690Y-48060714D01*
X76831547Y-48060714D01*
X76926785Y-48108333D01*
X76974404Y-48203571D01*
X76974404Y-48727380D01*
X77450595Y-48727380D02*
X77450595Y-48060714D01*
X77450595Y-48155952D02*
X77498214Y-48108333D01*
X77593452Y-48060714D01*
X77736309Y-48060714D01*
X77831547Y-48108333D01*
X77879166Y-48203571D01*
X77879166Y-48727380D01*
X77879166Y-48203571D02*
X77926785Y-48108333D01*
X78022023Y-48060714D01*
X78164880Y-48060714D01*
X78260119Y-48108333D01*
X78307738Y-48203571D01*
X78307738Y-48727380D01*
X64050000Y-49575000D02*
X84375000Y-49575000D01*
X64050000Y-53775000D02*
X64050000Y-48988579D01*
X84375000Y-53775000D02*
X84375000Y-48988579D01*
X84375000Y-49575000D02*
X83248496Y-50161421D01*
X84375000Y-49575000D02*
X83248496Y-48988579D01*
X64050000Y-49575000D02*
X65176504Y-50161421D01*
X64050000Y-49575000D02*
X65176504Y-48988579D01*
X59302381Y-62132142D02*
X59350001Y-62179761D01*
X59397620Y-62275000D01*
X59397620Y-62513095D01*
X59350001Y-62608333D01*
X59302381Y-62655952D01*
X59207143Y-62703571D01*
X59111905Y-62703571D01*
X58969048Y-62655952D01*
X58397620Y-62084523D01*
X58397620Y-62703571D01*
X59397620Y-63608333D02*
X59397620Y-63132142D01*
X58921429Y-63084523D01*
X58969048Y-63132142D01*
X59016667Y-63227380D01*
X59016667Y-63465476D01*
X58969048Y-63560714D01*
X58921429Y-63608333D01*
X58826191Y-63655952D01*
X58588096Y-63655952D01*
X58492858Y-63608333D01*
X58445239Y-63560714D01*
X58397620Y-63465476D01*
X58397620Y-63227380D01*
X58445239Y-63132142D01*
X58492858Y-63084523D01*
X58492858Y-64084523D02*
X58445239Y-64132142D01*
X58397620Y-64084523D01*
X58445239Y-64036904D01*
X58492858Y-64084523D01*
X58397620Y-64084523D01*
X59397620Y-64751190D02*
X59397620Y-64846428D01*
X59350001Y-64941666D01*
X59302381Y-64989285D01*
X59207143Y-65036904D01*
X59016667Y-65084523D01*
X58778572Y-65084523D01*
X58588096Y-65036904D01*
X58492858Y-64989285D01*
X58445239Y-64941666D01*
X58397620Y-64846428D01*
X58397620Y-64751190D01*
X58445239Y-64655952D01*
X58492858Y-64608333D01*
X58588096Y-64560714D01*
X58778572Y-64513095D01*
X59016667Y-64513095D01*
X59207143Y-64560714D01*
X59302381Y-64608333D01*
X59350001Y-64655952D01*
X59397620Y-64751190D01*
X59397620Y-65703571D02*
X59397620Y-65798809D01*
X59350001Y-65894047D01*
X59302381Y-65941666D01*
X59207143Y-65989285D01*
X59016667Y-66036904D01*
X58778572Y-66036904D01*
X58588096Y-65989285D01*
X58492858Y-65941666D01*
X58445239Y-65894047D01*
X58397620Y-65798809D01*
X58397620Y-65703571D01*
X58445239Y-65608333D01*
X58492858Y-65560714D01*
X58588096Y-65513095D01*
X58778572Y-65465476D01*
X59016667Y-65465476D01*
X59207143Y-65513095D01*
X59302381Y-65560714D01*
X59350001Y-65608333D01*
X59397620Y-65703571D01*
X59397620Y-66655952D02*
X59397620Y-66751190D01*
X59350001Y-66846428D01*
X59302381Y-66894047D01*
X59207143Y-66941666D01*
X59016667Y-66989285D01*
X58778572Y-66989285D01*
X58588096Y-66941666D01*
X58492858Y-66894047D01*
X58445239Y-66846428D01*
X58397620Y-66751190D01*
X58397620Y-66655952D01*
X58445239Y-66560714D01*
X58492858Y-66513095D01*
X58588096Y-66465476D01*
X58778572Y-66417857D01*
X59016667Y-66417857D01*
X59207143Y-66465476D01*
X59302381Y-66513095D01*
X59350001Y-66560714D01*
X59397620Y-66655952D01*
X58397620Y-68179761D02*
X59064286Y-68179761D01*
X58969048Y-68179761D02*
X59016667Y-68227380D01*
X59064286Y-68322619D01*
X59064286Y-68465476D01*
X59016667Y-68560714D01*
X58921429Y-68608333D01*
X58397620Y-68608333D01*
X58921429Y-68608333D02*
X59016667Y-68655952D01*
X59064286Y-68751190D01*
X59064286Y-68894047D01*
X59016667Y-68989285D01*
X58921429Y-69036904D01*
X58397620Y-69036904D01*
X58397620Y-69513095D02*
X59064286Y-69513095D01*
X58969048Y-69513095D02*
X59016667Y-69560714D01*
X59064286Y-69655952D01*
X59064286Y-69798809D01*
X59016667Y-69894047D01*
X58921429Y-69941666D01*
X58397620Y-69941666D01*
X58921429Y-69941666D02*
X59016667Y-69989285D01*
X59064286Y-70084523D01*
X59064286Y-70227380D01*
X59016667Y-70322619D01*
X58921429Y-70370238D01*
X58397620Y-70370238D01*
X60150001Y-53775000D02*
X60150001Y-78775000D01*
X64050000Y-53775000D02*
X59563580Y-53775000D01*
X64050000Y-78775000D02*
X59563580Y-78775000D01*
X60150001Y-78775000D02*
X59563580Y-77648496D01*
X60150001Y-78775000D02*
X60736422Y-77648496D01*
X60150001Y-53775000D02*
X59563580Y-54901504D01*
X60150001Y-53775000D02*
X60736422Y-54901504D01*
D11*
X70288000Y-63844500D02*
X70288000Y-62955500D01*
X71875500Y-63844500D02*
X70288000Y-63844500D01*
X71875500Y-62955500D02*
X71875500Y-63844500D01*
X70288000Y-62955500D02*
X71875500Y-62955500D01*
X73566400Y-60243700D02*
G75*
G03X73566400Y-60243700I-101600J0D01*
G01*
X75217400Y-60523100D02*
X75217400Y-59176900D01*
X73439400Y-60523100D02*
X75217400Y-60523100D01*
X73007600Y-60142100D02*
X73426700Y-60523100D01*
X73007600Y-59176900D02*
X73007600Y-60142100D01*
X75217400Y-59176900D02*
X73007600Y-59176900D01*
X67812500Y-59950000D02*
X68462500Y-59300000D01*
X69612500Y-59300000D02*
X68462500Y-59300000D01*
X67812500Y-59950000D02*
X67812500Y-62400000D01*
X69612500Y-62400000D02*
X67812500Y-62400000D01*
X69612500Y-59300000D02*
X69612500Y-62400000D01*
X69588000Y-57950000D02*
X68938000Y-58600000D01*
X67788000Y-58600000D02*
X68938000Y-58600000D01*
X69588000Y-57950000D02*
X69588000Y-55500000D01*
X67788000Y-55500000D02*
X69588000Y-55500000D01*
X67788000Y-58600000D02*
X67788000Y-55500000D01*
X68030000Y-66785000D02*
X68030000Y-67035000D01*
X67680000Y-66785000D02*
X68030000Y-66285000D01*
X68380000Y-66785000D02*
X67680000Y-66785000D01*
X68030000Y-66285000D02*
X68380000Y-66785000D01*
X68030000Y-66285000D02*
X68030000Y-66085000D01*
X68380000Y-66285000D02*
X67680000Y-66285000D01*
X67330000Y-65685000D02*
X68730000Y-65685000D01*
X67330000Y-67485000D02*
X67330000Y-65685000D01*
X68730000Y-67485000D02*
X67330000Y-67485000D01*
X68730000Y-65685000D02*
X68730000Y-67485000D01*
X72062500Y-59429411D02*
X72562500Y-59429411D01*
X72062500Y-60429411D02*
X72062500Y-59429411D01*
X72562500Y-60429411D02*
X72062500Y-60429411D01*
X72562500Y-59429411D02*
X72562500Y-60429411D01*
X72562500Y-58150000D02*
X72062500Y-58150000D01*
X72562500Y-57150000D02*
X72562500Y-58150000D01*
X72062500Y-57150000D02*
X72562500Y-57150000D01*
X72062500Y-58150000D02*
X72062500Y-57150000D01*
X70962500Y-59450000D02*
X71462500Y-59450000D01*
X70962500Y-60450000D02*
X70962500Y-59450000D01*
X71462500Y-60450000D02*
X70962500Y-60450000D01*
X71462500Y-59450000D02*
X71462500Y-60450000D01*
X74612500Y-57300000D02*
X74612500Y-57800000D01*
X73612500Y-57300000D02*
X74612500Y-57300000D01*
X73612500Y-57800000D02*
X73612500Y-57300000D01*
X74612500Y-57800000D02*
X73612500Y-57800000D01*
X69100000Y-54925000D02*
X68100000Y-54925000D01*
X68100000Y-54925000D02*
X68100000Y-54425000D01*
X68100000Y-54425000D02*
X69100000Y-54425000D01*
X69100000Y-54425000D02*
X69100000Y-54925000D01*
X66960000Y-64185000D02*
X66960000Y-63185000D01*
X66960000Y-63185000D02*
X67460000Y-63185000D01*
X67460000Y-63185000D02*
X67460000Y-64185000D01*
X67460000Y-64185000D02*
X66960000Y-64185000D01*
X71562500Y-61350000D02*
X71562500Y-62350000D01*
X71562500Y-62350000D02*
X71062500Y-62350000D01*
X71062500Y-62350000D02*
X71062500Y-61350000D01*
X71062500Y-61350000D02*
X71562500Y-61350000D01*
X80250000Y-70725000D02*
X80820000Y-71275000D01*
X80820000Y-72125000D02*
X77780000Y-72125000D01*
X77780000Y-70725000D02*
X77780000Y-72125000D01*
X80820000Y-71275000D02*
X80820000Y-72125000D01*
X80250000Y-70725000D02*
X77800000Y-70725000D01*
X75200000Y-70755000D02*
X72750000Y-70755000D01*
X75770000Y-71305000D02*
X75770000Y-72155000D01*
X72730000Y-70755000D02*
X72730000Y-72155000D01*
X75770000Y-72155000D02*
X72730000Y-72155000D01*
X75200000Y-70755000D02*
X75770000Y-71305000D01*
X70100000Y-70775000D02*
X70670000Y-71325000D01*
X70670000Y-72175000D02*
X67630000Y-72175000D01*
X67630000Y-70775000D02*
X67630000Y-72175000D01*
X70670000Y-71325000D02*
X70670000Y-72175000D01*
X70100000Y-70775000D02*
X67650000Y-70775000D01*
X83850000Y-73875000D02*
X77950000Y-73875000D01*
X83850000Y-78375000D02*
X83850000Y-73875000D01*
X77950000Y-78375000D02*
X83850000Y-78375000D01*
X77950000Y-73875000D02*
X77950000Y-78375000D01*
X77550000Y-73475000D02*
X77550000Y-74725000D01*
X78800000Y-73475000D02*
X77550000Y-73475000D01*
X77200000Y-73875000D02*
X71300000Y-73875000D01*
X77200000Y-78375000D02*
X77200000Y-73875000D01*
X71300000Y-78375000D02*
X77200000Y-78375000D01*
X71300000Y-73875000D02*
X71300000Y-78375000D01*
X70900000Y-73475000D02*
X70900000Y-74725000D01*
X72150000Y-73475000D02*
X70900000Y-73475000D01*
X65500000Y-73475000D02*
X64250000Y-73475000D01*
X64250000Y-73475000D02*
X64250000Y-74725000D01*
X64650000Y-73875000D02*
X64650000Y-78375000D01*
X64650000Y-78375000D02*
X70550000Y-78375000D01*
X70550000Y-78375000D02*
X70550000Y-73875000D01*
X70550000Y-73875000D02*
X64650000Y-73875000D01*
X76150000Y-61725000D02*
X77950000Y-61725000D01*
X77950000Y-61725000D02*
X77950000Y-63125000D01*
X77950000Y-63125000D02*
X76150000Y-63125000D01*
X76150000Y-63125000D02*
X76150000Y-61725000D01*
X76750000Y-62075000D02*
X76750000Y-62775000D01*
X76750000Y-62425000D02*
X76550000Y-62425000D01*
X76750000Y-62425000D02*
X77250000Y-62075000D01*
X77250000Y-62075000D02*
X77250000Y-62775000D01*
X77250000Y-62775000D02*
X76750000Y-62425000D01*
X77250000Y-62425000D02*
X77500000Y-62425000D01*
D12*
X70394642Y-63126190D02*
X70680357Y-63126190D01*
X70537500Y-63626190D02*
X70537500Y-63126190D01*
X70847023Y-63626190D02*
X70847023Y-63126190D01*
X70847023Y-63364285D02*
X71132738Y-63364285D01*
X71132738Y-63626190D02*
X71132738Y-63126190D01*
X71632738Y-63626190D02*
X71347023Y-63626190D01*
X71489880Y-63626190D02*
X71489880Y-63126190D01*
X71442261Y-63197619D01*
X71394642Y-63245238D01*
X71347023Y-63269047D01*
X73863690Y-60155952D02*
X74268452Y-60155952D01*
X74316071Y-60132142D01*
X74339880Y-60108333D01*
X74363690Y-60060714D01*
X74363690Y-59965476D01*
X74339880Y-59917857D01*
X74316071Y-59894047D01*
X74268452Y-59870238D01*
X73863690Y-59870238D01*
X74363690Y-59370238D02*
X74363690Y-59655952D01*
X74363690Y-59513095D02*
X73863690Y-59513095D01*
X73935119Y-59560714D01*
X73982738Y-59608333D01*
X74006547Y-59655952D01*
D13*
X68438690Y-61230952D02*
X68843452Y-61230952D01*
X68891071Y-61207142D01*
X68914880Y-61183333D01*
X68938690Y-61135714D01*
X68938690Y-61040476D01*
X68914880Y-60992857D01*
X68891071Y-60969047D01*
X68843452Y-60945238D01*
X68438690Y-60945238D01*
X68486309Y-60730952D02*
X68462500Y-60707142D01*
X68438690Y-60659523D01*
X68438690Y-60540476D01*
X68462500Y-60492857D01*
X68486309Y-60469047D01*
X68533928Y-60445238D01*
X68581547Y-60445238D01*
X68652976Y-60469047D01*
X68938690Y-60754761D01*
X68938690Y-60445238D01*
X68414190Y-57430952D02*
X68818952Y-57430952D01*
X68866571Y-57407142D01*
X68890380Y-57383333D01*
X68914190Y-57335714D01*
X68914190Y-57240476D01*
X68890380Y-57192857D01*
X68866571Y-57169047D01*
X68818952Y-57145238D01*
X68414190Y-57145238D01*
X68414190Y-56954761D02*
X68414190Y-56645238D01*
X68604666Y-56811904D01*
X68604666Y-56740476D01*
X68628476Y-56692857D01*
X68652285Y-56669047D01*
X68699904Y-56645238D01*
X68818952Y-56645238D01*
X68866571Y-56669047D01*
X68890380Y-56692857D01*
X68914190Y-56740476D01*
X68914190Y-56883333D01*
X68890380Y-56930952D01*
X68866571Y-56954761D01*
D12*
X67735952Y-65461190D02*
X67735952Y-64961190D01*
X67855000Y-64961190D01*
X67926428Y-64985000D01*
X67974047Y-65032619D01*
X67997857Y-65080238D01*
X68021666Y-65175476D01*
X68021666Y-65246904D01*
X67997857Y-65342142D01*
X67974047Y-65389761D01*
X67926428Y-65437380D01*
X67855000Y-65461190D01*
X67735952Y-65461190D01*
X68497857Y-65461190D02*
X68212142Y-65461190D01*
X68355000Y-65461190D02*
X68355000Y-64961190D01*
X68307380Y-65032619D01*
X68259761Y-65080238D01*
X68212142Y-65104047D01*
X72179166Y-59303571D02*
X72155357Y-59327380D01*
X72083928Y-59351190D01*
X72036309Y-59351190D01*
X71964880Y-59327380D01*
X71917261Y-59279761D01*
X71893452Y-59232142D01*
X71869642Y-59136904D01*
X71869642Y-59065476D01*
X71893452Y-58970238D01*
X71917261Y-58922619D01*
X71964880Y-58875000D01*
X72036309Y-58851190D01*
X72083928Y-58851190D01*
X72155357Y-58875000D01*
X72179166Y-58898809D01*
X72607738Y-59017857D02*
X72607738Y-59351190D01*
X72488690Y-58827380D02*
X72369642Y-59184523D01*
X72679166Y-59184523D01*
X72229166Y-57003571D02*
X72205357Y-57027380D01*
X72133928Y-57051190D01*
X72086309Y-57051190D01*
X72014880Y-57027380D01*
X71967261Y-56979761D01*
X71943452Y-56932142D01*
X71919642Y-56836904D01*
X71919642Y-56765476D01*
X71943452Y-56670238D01*
X71967261Y-56622619D01*
X72014880Y-56575000D01*
X72086309Y-56551190D01*
X72133928Y-56551190D01*
X72205357Y-56575000D01*
X72229166Y-56598809D01*
X72395833Y-56551190D02*
X72705357Y-56551190D01*
X72538690Y-56741666D01*
X72610119Y-56741666D01*
X72657738Y-56765476D01*
X72681547Y-56789285D01*
X72705357Y-56836904D01*
X72705357Y-56955952D01*
X72681547Y-57003571D01*
X72657738Y-57027380D01*
X72610119Y-57051190D01*
X72467261Y-57051190D01*
X72419642Y-57027380D01*
X72395833Y-57003571D01*
X71129166Y-59278571D02*
X71105357Y-59302380D01*
X71033928Y-59326190D01*
X70986309Y-59326190D01*
X70914880Y-59302380D01*
X70867261Y-59254761D01*
X70843452Y-59207142D01*
X70819642Y-59111904D01*
X70819642Y-59040476D01*
X70843452Y-58945238D01*
X70867261Y-58897619D01*
X70914880Y-58850000D01*
X70986309Y-58826190D01*
X71033928Y-58826190D01*
X71105357Y-58850000D01*
X71129166Y-58873809D01*
X71319642Y-58873809D02*
X71343452Y-58850000D01*
X71391071Y-58826190D01*
X71510119Y-58826190D01*
X71557738Y-58850000D01*
X71581547Y-58873809D01*
X71605357Y-58921428D01*
X71605357Y-58969047D01*
X71581547Y-59040476D01*
X71295833Y-59326190D01*
X71605357Y-59326190D01*
X74004166Y-57128571D02*
X73980357Y-57152380D01*
X73908928Y-57176190D01*
X73861309Y-57176190D01*
X73789880Y-57152380D01*
X73742261Y-57104761D01*
X73718452Y-57057142D01*
X73694642Y-56961904D01*
X73694642Y-56890476D01*
X73718452Y-56795238D01*
X73742261Y-56747619D01*
X73789880Y-56700000D01*
X73861309Y-56676190D01*
X73908928Y-56676190D01*
X73980357Y-56700000D01*
X74004166Y-56723809D01*
X74480357Y-57176190D02*
X74194642Y-57176190D01*
X74337500Y-57176190D02*
X74337500Y-56676190D01*
X74289880Y-56747619D01*
X74242261Y-56795238D01*
X74194642Y-56819047D01*
X69766666Y-54951190D02*
X69600000Y-54713095D01*
X69480952Y-54951190D02*
X69480952Y-54451190D01*
X69671428Y-54451190D01*
X69719047Y-54475000D01*
X69742857Y-54498809D01*
X69766666Y-54546428D01*
X69766666Y-54617857D01*
X69742857Y-54665476D01*
X69719047Y-54689285D01*
X69671428Y-54713095D01*
X69480952Y-54713095D01*
X69933333Y-54451190D02*
X70242857Y-54451190D01*
X70076190Y-54641666D01*
X70147619Y-54641666D01*
X70195238Y-54665476D01*
X70219047Y-54689285D01*
X70242857Y-54736904D01*
X70242857Y-54855952D01*
X70219047Y-54903571D01*
X70195238Y-54927380D01*
X70147619Y-54951190D01*
X70004761Y-54951190D01*
X69957142Y-54927380D01*
X69933333Y-54903571D01*
X67176666Y-63061190D02*
X67010000Y-62823095D01*
X66890952Y-63061190D02*
X66890952Y-62561190D01*
X67081428Y-62561190D01*
X67129047Y-62585000D01*
X67152857Y-62608809D01*
X67176666Y-62656428D01*
X67176666Y-62727857D01*
X67152857Y-62775476D01*
X67129047Y-62799285D01*
X67081428Y-62823095D01*
X66890952Y-62823095D01*
X67367142Y-62608809D02*
X67390952Y-62585000D01*
X67438571Y-62561190D01*
X67557619Y-62561190D01*
X67605238Y-62585000D01*
X67629047Y-62608809D01*
X67652857Y-62656428D01*
X67652857Y-62704047D01*
X67629047Y-62775476D01*
X67343333Y-63061190D01*
X67652857Y-63061190D01*
X71279166Y-61176190D02*
X71112500Y-60938095D01*
X70993452Y-61176190D02*
X70993452Y-60676190D01*
X71183928Y-60676190D01*
X71231547Y-60700000D01*
X71255357Y-60723809D01*
X71279166Y-60771428D01*
X71279166Y-60842857D01*
X71255357Y-60890476D01*
X71231547Y-60914285D01*
X71183928Y-60938095D01*
X70993452Y-60938095D01*
X71755357Y-61176190D02*
X71469642Y-61176190D01*
X71612500Y-61176190D02*
X71612500Y-60676190D01*
X71564880Y-60747619D01*
X71517261Y-60795238D01*
X71469642Y-60819047D01*
X74033333Y-65201190D02*
X74033333Y-65558333D01*
X74009523Y-65629761D01*
X73961904Y-65677380D01*
X73890476Y-65701190D01*
X73842857Y-65701190D01*
X74247619Y-65248809D02*
X74271428Y-65225000D01*
X74319047Y-65201190D01*
X74438095Y-65201190D01*
X74485714Y-65225000D01*
X74509523Y-65248809D01*
X74533333Y-65296428D01*
X74533333Y-65344047D01*
X74509523Y-65415476D01*
X74223809Y-65701190D01*
X74533333Y-65701190D01*
D13*
X79252380Y-71698809D02*
X79204761Y-71675000D01*
X79157142Y-71627380D01*
X79085714Y-71555952D01*
X79038095Y-71532142D01*
X78990476Y-71532142D01*
X79014285Y-71651190D02*
X78966666Y-71627380D01*
X78919047Y-71579761D01*
X78895238Y-71484523D01*
X78895238Y-71317857D01*
X78919047Y-71222619D01*
X78966666Y-71175000D01*
X79014285Y-71151190D01*
X79109523Y-71151190D01*
X79157142Y-71175000D01*
X79204761Y-71222619D01*
X79228571Y-71317857D01*
X79228571Y-71484523D01*
X79204761Y-71579761D01*
X79157142Y-71627380D01*
X79109523Y-71651190D01*
X79014285Y-71651190D01*
X79704761Y-71651190D02*
X79419047Y-71651190D01*
X79561904Y-71651190D02*
X79561904Y-71151190D01*
X79514285Y-71222619D01*
X79466666Y-71270238D01*
X79419047Y-71294047D01*
X74202380Y-71728809D02*
X74154761Y-71705000D01*
X74107142Y-71657380D01*
X74035714Y-71585952D01*
X73988095Y-71562142D01*
X73940476Y-71562142D01*
X73964285Y-71681190D02*
X73916666Y-71657380D01*
X73869047Y-71609761D01*
X73845238Y-71514523D01*
X73845238Y-71347857D01*
X73869047Y-71252619D01*
X73916666Y-71205000D01*
X73964285Y-71181190D01*
X74059523Y-71181190D01*
X74107142Y-71205000D01*
X74154761Y-71252619D01*
X74178571Y-71347857D01*
X74178571Y-71514523D01*
X74154761Y-71609761D01*
X74107142Y-71657380D01*
X74059523Y-71681190D01*
X73964285Y-71681190D01*
X74369047Y-71228809D02*
X74392857Y-71205000D01*
X74440476Y-71181190D01*
X74559523Y-71181190D01*
X74607142Y-71205000D01*
X74630952Y-71228809D01*
X74654761Y-71276428D01*
X74654761Y-71324047D01*
X74630952Y-71395476D01*
X74345238Y-71681190D01*
X74654761Y-71681190D01*
X69102380Y-71748809D02*
X69054761Y-71725000D01*
X69007142Y-71677380D01*
X68935714Y-71605952D01*
X68888095Y-71582142D01*
X68840476Y-71582142D01*
X68864285Y-71701190D02*
X68816666Y-71677380D01*
X68769047Y-71629761D01*
X68745238Y-71534523D01*
X68745238Y-71367857D01*
X68769047Y-71272619D01*
X68816666Y-71225000D01*
X68864285Y-71201190D01*
X68959523Y-71201190D01*
X69007142Y-71225000D01*
X69054761Y-71272619D01*
X69078571Y-71367857D01*
X69078571Y-71534523D01*
X69054761Y-71629761D01*
X69007142Y-71677380D01*
X68959523Y-71701190D01*
X68864285Y-71701190D01*
X69245238Y-71201190D02*
X69554761Y-71201190D01*
X69388095Y-71391666D01*
X69459523Y-71391666D01*
X69507142Y-71415476D01*
X69530952Y-71439285D01*
X69554761Y-71486904D01*
X69554761Y-71605952D01*
X69530952Y-71653571D01*
X69507142Y-71677380D01*
X69459523Y-71701190D01*
X69316666Y-71701190D01*
X69269047Y-71677380D01*
X69245238Y-71653571D01*
D10*
X79828571Y-77432142D02*
X79780952Y-77479761D01*
X79638095Y-77527380D01*
X79542857Y-77527380D01*
X79400000Y-77479761D01*
X79304761Y-77384523D01*
X79257142Y-77289285D01*
X79209523Y-77098809D01*
X79209523Y-76955952D01*
X79257142Y-76765476D01*
X79304761Y-76670238D01*
X79400000Y-76575000D01*
X79542857Y-76527380D01*
X79638095Y-76527380D01*
X79780952Y-76575000D01*
X79828571Y-76622619D01*
X80400000Y-77527380D02*
X80304761Y-77479761D01*
X80257142Y-77432142D01*
X80209523Y-77336904D01*
X80209523Y-77051190D01*
X80257142Y-76955952D01*
X80304761Y-76908333D01*
X80400000Y-76860714D01*
X80542857Y-76860714D01*
X80638095Y-76908333D01*
X80685714Y-76955952D01*
X80733333Y-77051190D01*
X80733333Y-77336904D01*
X80685714Y-77432142D01*
X80638095Y-77479761D01*
X80542857Y-77527380D01*
X80400000Y-77527380D01*
X81161904Y-76860714D02*
X81161904Y-77527380D01*
X81161904Y-76955952D02*
X81209523Y-76908333D01*
X81304761Y-76860714D01*
X81447619Y-76860714D01*
X81542857Y-76908333D01*
X81590476Y-77003571D01*
X81590476Y-77527380D01*
X82590476Y-77527380D02*
X82019047Y-77527380D01*
X82304761Y-77527380D02*
X82304761Y-76527380D01*
X82209523Y-76670238D01*
X82114285Y-76765476D01*
X82019047Y-76813095D01*
X73178571Y-77432142D02*
X73130952Y-77479761D01*
X72988095Y-77527380D01*
X72892857Y-77527380D01*
X72750000Y-77479761D01*
X72654761Y-77384523D01*
X72607142Y-77289285D01*
X72559523Y-77098809D01*
X72559523Y-76955952D01*
X72607142Y-76765476D01*
X72654761Y-76670238D01*
X72750000Y-76575000D01*
X72892857Y-76527380D01*
X72988095Y-76527380D01*
X73130952Y-76575000D01*
X73178571Y-76622619D01*
X73750000Y-77527380D02*
X73654761Y-77479761D01*
X73607142Y-77432142D01*
X73559523Y-77336904D01*
X73559523Y-77051190D01*
X73607142Y-76955952D01*
X73654761Y-76908333D01*
X73750000Y-76860714D01*
X73892857Y-76860714D01*
X73988095Y-76908333D01*
X74035714Y-76955952D01*
X74083333Y-77051190D01*
X74083333Y-77336904D01*
X74035714Y-77432142D01*
X73988095Y-77479761D01*
X73892857Y-77527380D01*
X73750000Y-77527380D01*
X74511904Y-76860714D02*
X74511904Y-77527380D01*
X74511904Y-76955952D02*
X74559523Y-76908333D01*
X74654761Y-76860714D01*
X74797619Y-76860714D01*
X74892857Y-76908333D01*
X74940476Y-77003571D01*
X74940476Y-77527380D01*
X75369047Y-76622619D02*
X75416666Y-76575000D01*
X75511904Y-76527380D01*
X75750000Y-76527380D01*
X75845238Y-76575000D01*
X75892857Y-76622619D01*
X75940476Y-76717857D01*
X75940476Y-76813095D01*
X75892857Y-76955952D01*
X75321428Y-77527380D01*
X75940476Y-77527380D01*
X66528571Y-77432142D02*
X66480952Y-77479761D01*
X66338095Y-77527380D01*
X66242857Y-77527380D01*
X66100000Y-77479761D01*
X66004761Y-77384523D01*
X65957142Y-77289285D01*
X65909523Y-77098809D01*
X65909523Y-76955952D01*
X65957142Y-76765476D01*
X66004761Y-76670238D01*
X66100000Y-76575000D01*
X66242857Y-76527380D01*
X66338095Y-76527380D01*
X66480952Y-76575000D01*
X66528571Y-76622619D01*
X67100000Y-77527380D02*
X67004761Y-77479761D01*
X66957142Y-77432142D01*
X66909523Y-77336904D01*
X66909523Y-77051190D01*
X66957142Y-76955952D01*
X67004761Y-76908333D01*
X67100000Y-76860714D01*
X67242857Y-76860714D01*
X67338095Y-76908333D01*
X67385714Y-76955952D01*
X67433333Y-77051190D01*
X67433333Y-77336904D01*
X67385714Y-77432142D01*
X67338095Y-77479761D01*
X67242857Y-77527380D01*
X67100000Y-77527380D01*
X67861904Y-76860714D02*
X67861904Y-77527380D01*
X67861904Y-76955952D02*
X67909523Y-76908333D01*
X68004761Y-76860714D01*
X68147619Y-76860714D01*
X68242857Y-76908333D01*
X68290476Y-77003571D01*
X68290476Y-77527380D01*
X68671428Y-76527380D02*
X69290476Y-76527380D01*
X68957142Y-76908333D01*
X69100000Y-76908333D01*
X69195238Y-76955952D01*
X69242857Y-77003571D01*
X69290476Y-77098809D01*
X69290476Y-77336904D01*
X69242857Y-77432142D01*
X69195238Y-77479761D01*
X69100000Y-77527380D01*
X68814285Y-77527380D01*
X68719047Y-77479761D01*
X68671428Y-77432142D01*
D11*
X76754761Y-61589952D02*
X76754761Y-61189952D01*
X76850000Y-61189952D01*
X76907142Y-61209000D01*
X76945238Y-61247095D01*
X76964285Y-61285190D01*
X76983333Y-61361380D01*
X76983333Y-61418523D01*
X76964285Y-61494714D01*
X76945238Y-61532809D01*
X76907142Y-61570904D01*
X76850000Y-61589952D01*
X76754761Y-61589952D01*
X77135714Y-61228047D02*
X77154761Y-61209000D01*
X77192857Y-61189952D01*
X77288095Y-61189952D01*
X77326190Y-61209000D01*
X77345238Y-61228047D01*
X77364285Y-61266142D01*
X77364285Y-61304238D01*
X77345238Y-61361380D01*
X77116666Y-61589952D01*
X77364285Y-61589952D01*
M02*
