M48
; DRILL file {KiCad (5.1.5-0)} date Thursday, 09 April 2020 at 11:26:05
; FORMAT={-:-/ absolute / metric / decimal}
; #@! TF.CreationDate,2020-04-09T11:26:05+02:00
; #@! TF.GenerationSoftware,Kicad,Pcbnew,(5.1.5-0)
; #@! TF.FileFunction,Plated,1,2,PTH
FMAT,2
METRIC
T1C0.300
T2C0.750
T3C0.900
T4C1.000
%
G90
G05
T1
X68.462Y-61.825
X68.537Y-58.0
X69.862Y-64.95
X71.565Y-58.274
X72.138Y-55.325
X73.263Y-62.525
X79.7Y-62.575
T2
X79.9Y-75.575
X81.9Y-75.575
X66.6Y-75.575
X68.6Y-75.575
X73.25Y-75.575
X75.25Y-75.575
T3
X74.188Y-67.2
T4
X65.312Y-55.05
X65.312Y-57.59
X65.312Y-60.13
X65.312Y-62.67
X65.312Y-65.21
X65.312Y-67.75
X83.087Y-55.05
X83.087Y-57.59
X83.087Y-60.13
X83.087Y-62.67
X83.087Y-65.21
X83.087Y-67.75
T3
G00X71.688Y-67.2
M15
G01X72.188Y-67.2
M16
G05
G00X76.688Y-67.2
M15
G01X76.188Y-67.2
M16
G05
T0
M30
