G04 #@! TF.GenerationSoftware,KiCad,Pcbnew,(5.1.5-0)*
G04 #@! TF.CreationDate,2020-04-09T11:26:26+02:00*
G04 #@! TF.ProjectId,dxl-fan-module,64786c2d-6661-46e2-9d6d-6f64756c652e,rev?*
G04 #@! TF.SameCoordinates,Original*
G04 #@! TF.FileFunction,Legend,Top*
G04 #@! TF.FilePolarity,Positive*
%FSLAX46Y46*%
G04 Gerber Fmt 4.6, Leading zero omitted, Abs format (unit mm)*
G04 Created by KiCad (PCBNEW (5.1.5-0)) date 2020-04-09 11:26:26*
%MOMM*%
%LPD*%
G04 APERTURE LIST*
%ADD10C,0.150000*%
%ADD11C,0.120000*%
%ADD12C,0.125000*%
%ADD13C,0.010000*%
G04 APERTURE END LIST*
D10*
X81832142Y-71625000D02*
X81832142Y-71825000D01*
X82146428Y-71825000D02*
X81546428Y-71825000D01*
X81546428Y-71539285D01*
X82146428Y-71053571D02*
X81832142Y-71053571D01*
X81775000Y-71082142D01*
X81746428Y-71139285D01*
X81746428Y-71253571D01*
X81775000Y-71310714D01*
X82117857Y-71053571D02*
X82146428Y-71110714D01*
X82146428Y-71253571D01*
X82117857Y-71310714D01*
X82060714Y-71339285D01*
X82003571Y-71339285D01*
X81946428Y-71310714D01*
X81917857Y-71253571D01*
X81917857Y-71110714D01*
X81889285Y-71053571D01*
X81746428Y-70767857D02*
X82146428Y-70767857D01*
X81803571Y-70767857D02*
X81775000Y-70739285D01*
X81746428Y-70682142D01*
X81746428Y-70596428D01*
X81775000Y-70539285D01*
X81832142Y-70510714D01*
X82146428Y-70510714D01*
X82117857Y-70253571D02*
X82146428Y-70196428D01*
X82146428Y-70082142D01*
X82117857Y-70025000D01*
X82060714Y-69996428D01*
X82032142Y-69996428D01*
X81975000Y-70025000D01*
X81946428Y-70082142D01*
X81946428Y-70167857D01*
X81917857Y-70225000D01*
X81860714Y-70253571D01*
X81832142Y-70253571D01*
X81775000Y-70225000D01*
X81746428Y-70167857D01*
X81746428Y-70082142D01*
X81775000Y-70025000D01*
X83139285Y-72382142D02*
X83167857Y-72410714D01*
X83196428Y-72496428D01*
X83196428Y-72553571D01*
X83167857Y-72639285D01*
X83110714Y-72696428D01*
X83053571Y-72725000D01*
X82939285Y-72753571D01*
X82853571Y-72753571D01*
X82739285Y-72725000D01*
X82682142Y-72696428D01*
X82625000Y-72639285D01*
X82596428Y-72553571D01*
X82596428Y-72496428D01*
X82625000Y-72410714D01*
X82653571Y-72382142D01*
X83196428Y-72039285D02*
X83167857Y-72096428D01*
X83139285Y-72125000D01*
X83082142Y-72153571D01*
X82910714Y-72153571D01*
X82853571Y-72125000D01*
X82825000Y-72096428D01*
X82796428Y-72039285D01*
X82796428Y-71953571D01*
X82825000Y-71896428D01*
X82853571Y-71867857D01*
X82910714Y-71839285D01*
X83082142Y-71839285D01*
X83139285Y-71867857D01*
X83167857Y-71896428D01*
X83196428Y-71953571D01*
X83196428Y-72039285D01*
X82796428Y-71582142D02*
X83196428Y-71582142D01*
X82853571Y-71582142D02*
X82825000Y-71553571D01*
X82796428Y-71496428D01*
X82796428Y-71410714D01*
X82825000Y-71353571D01*
X82882142Y-71325000D01*
X83196428Y-71325000D01*
X82796428Y-71039285D02*
X83196428Y-71039285D01*
X82853571Y-71039285D02*
X82825000Y-71010714D01*
X82796428Y-70953571D01*
X82796428Y-70867857D01*
X82825000Y-70810714D01*
X82882142Y-70782142D01*
X83196428Y-70782142D01*
X83167857Y-70267857D02*
X83196428Y-70325000D01*
X83196428Y-70439285D01*
X83167857Y-70496428D01*
X83110714Y-70525000D01*
X82882142Y-70525000D01*
X82825000Y-70496428D01*
X82796428Y-70439285D01*
X82796428Y-70325000D01*
X82825000Y-70267857D01*
X82882142Y-70239285D01*
X82939285Y-70239285D01*
X82996428Y-70525000D01*
X83167857Y-69725000D02*
X83196428Y-69782142D01*
X83196428Y-69896428D01*
X83167857Y-69953571D01*
X83139285Y-69982142D01*
X83082142Y-70010714D01*
X82910714Y-70010714D01*
X82853571Y-69982142D01*
X82825000Y-69953571D01*
X82796428Y-69896428D01*
X82796428Y-69782142D01*
X82825000Y-69725000D01*
X82796428Y-69553571D02*
X82796428Y-69325000D01*
X82596428Y-69467857D02*
X83110714Y-69467857D01*
X83167857Y-69439285D01*
X83196428Y-69382142D01*
X83196428Y-69325000D01*
X83139285Y-69125000D02*
X83167857Y-69096428D01*
X83196428Y-69125000D01*
X83167857Y-69153571D01*
X83139285Y-69125000D01*
X83196428Y-69125000D01*
X68319047Y-73346428D02*
X69080952Y-73346428D01*
X74969047Y-73296428D02*
X75730952Y-73296428D01*
X82119047Y-73296428D02*
X82880952Y-73296428D01*
X66319047Y-73146428D02*
X67080952Y-73146428D01*
X66700000Y-73527380D02*
X66700000Y-72765476D01*
X73069047Y-73246428D02*
X73830952Y-73246428D01*
X73450000Y-73627380D02*
X73450000Y-72865476D01*
X80119047Y-73196428D02*
X80880952Y-73196428D01*
X80500000Y-73577380D02*
X80500000Y-72815476D01*
D11*
X76028571Y-55151190D02*
X76028571Y-54651190D01*
X76147619Y-54651190D01*
X76219047Y-54675000D01*
X76266666Y-54722619D01*
X76290476Y-54770238D01*
X76314285Y-54865476D01*
X76314285Y-54936904D01*
X76290476Y-55032142D01*
X76266666Y-55079761D01*
X76219047Y-55127380D01*
X76147619Y-55151190D01*
X76028571Y-55151190D01*
X76480952Y-54651190D02*
X76814285Y-55151190D01*
X76814285Y-54651190D02*
X76480952Y-55151190D01*
X77242857Y-55151190D02*
X77004761Y-55151190D01*
X77004761Y-54651190D01*
X77409523Y-54960714D02*
X77790476Y-54960714D01*
X77957142Y-54817857D02*
X78147619Y-54817857D01*
X78028571Y-55151190D02*
X78028571Y-54722619D01*
X78052380Y-54675000D01*
X78100000Y-54651190D01*
X78147619Y-54651190D01*
X78528571Y-55151190D02*
X78528571Y-54889285D01*
X78504761Y-54841666D01*
X78457142Y-54817857D01*
X78361904Y-54817857D01*
X78314285Y-54841666D01*
X78528571Y-55127380D02*
X78480952Y-55151190D01*
X78361904Y-55151190D01*
X78314285Y-55127380D01*
X78290476Y-55079761D01*
X78290476Y-55032142D01*
X78314285Y-54984523D01*
X78361904Y-54960714D01*
X78480952Y-54960714D01*
X78528571Y-54936904D01*
X78766666Y-54817857D02*
X78766666Y-55151190D01*
X78766666Y-54865476D02*
X78790476Y-54841666D01*
X78838095Y-54817857D01*
X78909523Y-54817857D01*
X78957142Y-54841666D01*
X78980952Y-54889285D01*
X78980952Y-55151190D01*
X79195238Y-55127380D02*
X79242857Y-55151190D01*
X79338095Y-55151190D01*
X79385714Y-55127380D01*
X79409523Y-55079761D01*
X79409523Y-55055952D01*
X79385714Y-55008333D01*
X79338095Y-54984523D01*
X79266666Y-54984523D01*
X79219047Y-54960714D01*
X79195238Y-54913095D01*
X79195238Y-54889285D01*
X79219047Y-54841666D01*
X79266666Y-54817857D01*
X79338095Y-54817857D01*
X79385714Y-54841666D01*
X80266666Y-55151190D02*
X79980952Y-55151190D01*
X80123809Y-55151190D02*
X80123809Y-54651190D01*
X80076190Y-54722619D01*
X80028571Y-54770238D01*
X79980952Y-54794047D01*
X80480952Y-55103571D02*
X80504761Y-55127380D01*
X80480952Y-55151190D01*
X80457142Y-55127380D01*
X80480952Y-55103571D01*
X80480952Y-55151190D01*
X80814285Y-54651190D02*
X80861904Y-54651190D01*
X80909523Y-54675000D01*
X80933333Y-54698809D01*
X80957142Y-54746428D01*
X80980952Y-54841666D01*
X80980952Y-54960714D01*
X80957142Y-55055952D01*
X80933333Y-55103571D01*
X80909523Y-55127380D01*
X80861904Y-55151190D01*
X80814285Y-55151190D01*
X80766666Y-55127380D01*
X80742857Y-55103571D01*
X80719047Y-55055952D01*
X80695238Y-54960714D01*
X80695238Y-54841666D01*
X80719047Y-54746428D01*
X80742857Y-54698809D01*
X80766666Y-54675000D01*
X80814285Y-54651190D01*
X81195238Y-55103571D02*
X81219047Y-55127380D01*
X81195238Y-55151190D01*
X81171428Y-55127380D01*
X81195238Y-55103571D01*
X81195238Y-55151190D01*
X81528571Y-54651190D02*
X81576190Y-54651190D01*
X81623809Y-54675000D01*
X81647619Y-54698809D01*
X81671428Y-54746428D01*
X81695238Y-54841666D01*
X81695238Y-54960714D01*
X81671428Y-55055952D01*
X81647619Y-55103571D01*
X81623809Y-55127380D01*
X81576190Y-55151190D01*
X81528571Y-55151190D01*
X81480952Y-55127380D01*
X81457142Y-55103571D01*
X81433333Y-55055952D01*
X81409523Y-54960714D01*
X81409523Y-54841666D01*
X81433333Y-54746428D01*
X81457142Y-54698809D01*
X81480952Y-54675000D01*
X81528571Y-54651190D01*
D12*
X84228423Y-55050000D02*
G75*
G03X84228423Y-55050000I-1135923J0D01*
G01*
X84228423Y-57590000D02*
G75*
G03X84228423Y-57590000I-1135923J0D01*
G01*
X66328500Y-62670000D02*
G75*
G03X66328500Y-62670000I-1016000J0D01*
G01*
X66448423Y-60130000D02*
G75*
G03X66448423Y-60130000I-1135923J0D01*
G01*
X66448423Y-57590000D02*
G75*
G03X66448423Y-57590000I-1135923J0D01*
G01*
X66448423Y-55050000D02*
G75*
G03X66448423Y-55050000I-1135923J0D01*
G01*
D13*
G36*
X73568767Y-54728148D02*
G01*
X73528106Y-54770510D01*
X73484400Y-54819633D01*
X73443146Y-54872922D01*
X73406960Y-54926977D01*
X73403875Y-54932038D01*
X73392882Y-54951111D01*
X73380959Y-54973248D01*
X73368969Y-54996679D01*
X73357780Y-55019633D01*
X73348256Y-55040340D01*
X73341262Y-55057029D01*
X73337861Y-55067095D01*
X73335656Y-55074713D01*
X73333772Y-55078343D01*
X73332188Y-55077531D01*
X73330879Y-55071823D01*
X73329822Y-55060763D01*
X73328994Y-55043897D01*
X73328372Y-55020770D01*
X73327931Y-54990928D01*
X73327649Y-54953917D01*
X73327502Y-54909281D01*
X73327466Y-54864900D01*
X73327466Y-54646633D01*
X73568767Y-54646633D01*
X73568767Y-54728148D01*
G37*
X73568767Y-54728148D02*
X73528106Y-54770510D01*
X73484400Y-54819633D01*
X73443146Y-54872922D01*
X73406960Y-54926977D01*
X73403875Y-54932038D01*
X73392882Y-54951111D01*
X73380959Y-54973248D01*
X73368969Y-54996679D01*
X73357780Y-55019633D01*
X73348256Y-55040340D01*
X73341262Y-55057029D01*
X73337861Y-55067095D01*
X73335656Y-55074713D01*
X73333772Y-55078343D01*
X73332188Y-55077531D01*
X73330879Y-55071823D01*
X73329822Y-55060763D01*
X73328994Y-55043897D01*
X73328372Y-55020770D01*
X73327931Y-54990928D01*
X73327649Y-54953917D01*
X73327502Y-54909281D01*
X73327466Y-54864900D01*
X73327466Y-54646633D01*
X73568767Y-54646633D01*
X73568767Y-54728148D01*
G36*
X71702932Y-54823375D02*
G01*
X71703090Y-54919888D01*
X71703233Y-55008319D01*
X71703374Y-55089055D01*
X71703523Y-55162482D01*
X71703691Y-55228984D01*
X71703887Y-55288947D01*
X71704125Y-55342757D01*
X71704413Y-55390800D01*
X71704763Y-55433461D01*
X71705186Y-55471126D01*
X71705693Y-55504179D01*
X71706293Y-55533008D01*
X71706999Y-55557997D01*
X71707822Y-55579533D01*
X71708770Y-55597999D01*
X71709857Y-55613784D01*
X71711092Y-55627270D01*
X71712486Y-55638846D01*
X71714050Y-55648895D01*
X71715795Y-55657804D01*
X71717732Y-55665958D01*
X71719871Y-55673743D01*
X71722223Y-55681544D01*
X71724800Y-55689747D01*
X71727468Y-55698272D01*
X71746788Y-55747496D01*
X71772544Y-55791336D01*
X71804447Y-55829501D01*
X71842209Y-55861701D01*
X71885540Y-55887645D01*
X71934151Y-55907043D01*
X71935665Y-55907514D01*
X71950063Y-55911488D01*
X71965925Y-55914846D01*
X71984035Y-55917636D01*
X72005177Y-55919904D01*
X72030133Y-55921694D01*
X72059689Y-55923053D01*
X72094626Y-55924027D01*
X72135728Y-55924663D01*
X72183780Y-55925005D01*
X72235606Y-55925100D01*
X72421316Y-55925100D01*
X72428037Y-55938097D01*
X72442595Y-55962242D01*
X72462611Y-55989715D01*
X72486653Y-56018927D01*
X72513286Y-56048286D01*
X72541080Y-56076204D01*
X72568599Y-56101089D01*
X72590867Y-56118788D01*
X72605248Y-56129423D01*
X72617189Y-56138391D01*
X72624922Y-56144360D01*
X72626638Y-56145784D01*
X72623077Y-56146263D01*
X72611823Y-56146705D01*
X72593651Y-56147109D01*
X72569336Y-56147475D01*
X72539652Y-56147800D01*
X72505373Y-56148086D01*
X72467273Y-56148329D01*
X72426128Y-56148530D01*
X72382711Y-56148688D01*
X72337797Y-56148801D01*
X72292161Y-56148868D01*
X72246575Y-56148889D01*
X72201816Y-56148862D01*
X72158657Y-56148787D01*
X72117873Y-56148663D01*
X72080238Y-56148488D01*
X72046526Y-56148261D01*
X72017512Y-56147983D01*
X71993970Y-56147651D01*
X71976675Y-56147265D01*
X71966401Y-56146823D01*
X71964333Y-56146616D01*
X71896430Y-56132961D01*
X71834707Y-56114503D01*
X71778003Y-56090663D01*
X71725159Y-56060860D01*
X71675015Y-56024513D01*
X71626411Y-55981042D01*
X71619103Y-55973792D01*
X71574969Y-55923532D01*
X71537751Y-55868482D01*
X71507590Y-55808928D01*
X71484630Y-55745161D01*
X71469010Y-55677467D01*
X71466969Y-55664750D01*
X71466180Y-55658613D01*
X71465457Y-55650931D01*
X71464798Y-55641339D01*
X71464199Y-55629471D01*
X71463659Y-55614962D01*
X71463174Y-55597447D01*
X71462741Y-55576559D01*
X71462357Y-55551934D01*
X71462021Y-55523205D01*
X71461728Y-55490008D01*
X71461476Y-55451976D01*
X71461262Y-55408745D01*
X71461084Y-55359948D01*
X71460939Y-55305221D01*
X71460823Y-55244197D01*
X71460734Y-55176511D01*
X71460669Y-55101798D01*
X71460626Y-55019692D01*
X71460601Y-54929828D01*
X71460591Y-54838192D01*
X71460567Y-54053967D01*
X71581107Y-54053966D01*
X71701647Y-54053966D01*
X71702932Y-54823375D01*
G37*
X71702932Y-54823375D02*
X71703090Y-54919888D01*
X71703233Y-55008319D01*
X71703374Y-55089055D01*
X71703523Y-55162482D01*
X71703691Y-55228984D01*
X71703887Y-55288947D01*
X71704125Y-55342757D01*
X71704413Y-55390800D01*
X71704763Y-55433461D01*
X71705186Y-55471126D01*
X71705693Y-55504179D01*
X71706293Y-55533008D01*
X71706999Y-55557997D01*
X71707822Y-55579533D01*
X71708770Y-55597999D01*
X71709857Y-55613784D01*
X71711092Y-55627270D01*
X71712486Y-55638846D01*
X71714050Y-55648895D01*
X71715795Y-55657804D01*
X71717732Y-55665958D01*
X71719871Y-55673743D01*
X71722223Y-55681544D01*
X71724800Y-55689747D01*
X71727468Y-55698272D01*
X71746788Y-55747496D01*
X71772544Y-55791336D01*
X71804447Y-55829501D01*
X71842209Y-55861701D01*
X71885540Y-55887645D01*
X71934151Y-55907043D01*
X71935665Y-55907514D01*
X71950063Y-55911488D01*
X71965925Y-55914846D01*
X71984035Y-55917636D01*
X72005177Y-55919904D01*
X72030133Y-55921694D01*
X72059689Y-55923053D01*
X72094626Y-55924027D01*
X72135728Y-55924663D01*
X72183780Y-55925005D01*
X72235606Y-55925100D01*
X72421316Y-55925100D01*
X72428037Y-55938097D01*
X72442595Y-55962242D01*
X72462611Y-55989715D01*
X72486653Y-56018927D01*
X72513286Y-56048286D01*
X72541080Y-56076204D01*
X72568599Y-56101089D01*
X72590867Y-56118788D01*
X72605248Y-56129423D01*
X72617189Y-56138391D01*
X72624922Y-56144360D01*
X72626638Y-56145784D01*
X72623077Y-56146263D01*
X72611823Y-56146705D01*
X72593651Y-56147109D01*
X72569336Y-56147475D01*
X72539652Y-56147800D01*
X72505373Y-56148086D01*
X72467273Y-56148329D01*
X72426128Y-56148530D01*
X72382711Y-56148688D01*
X72337797Y-56148801D01*
X72292161Y-56148868D01*
X72246575Y-56148889D01*
X72201816Y-56148862D01*
X72158657Y-56148787D01*
X72117873Y-56148663D01*
X72080238Y-56148488D01*
X72046526Y-56148261D01*
X72017512Y-56147983D01*
X71993970Y-56147651D01*
X71976675Y-56147265D01*
X71966401Y-56146823D01*
X71964333Y-56146616D01*
X71896430Y-56132961D01*
X71834707Y-56114503D01*
X71778003Y-56090663D01*
X71725159Y-56060860D01*
X71675015Y-56024513D01*
X71626411Y-55981042D01*
X71619103Y-55973792D01*
X71574969Y-55923532D01*
X71537751Y-55868482D01*
X71507590Y-55808928D01*
X71484630Y-55745161D01*
X71469010Y-55677467D01*
X71466969Y-55664750D01*
X71466180Y-55658613D01*
X71465457Y-55650931D01*
X71464798Y-55641339D01*
X71464199Y-55629471D01*
X71463659Y-55614962D01*
X71463174Y-55597447D01*
X71462741Y-55576559D01*
X71462357Y-55551934D01*
X71462021Y-55523205D01*
X71461728Y-55490008D01*
X71461476Y-55451976D01*
X71461262Y-55408745D01*
X71461084Y-55359948D01*
X71460939Y-55305221D01*
X71460823Y-55244197D01*
X71460734Y-55176511D01*
X71460669Y-55101798D01*
X71460626Y-55019692D01*
X71460601Y-54929828D01*
X71460591Y-54838192D01*
X71460567Y-54053967D01*
X71581107Y-54053966D01*
X71701647Y-54053966D01*
X71702932Y-54823375D01*
G36*
X75257082Y-54552905D02*
G01*
X75307899Y-54557688D01*
X75351682Y-54566374D01*
X75404179Y-54584197D01*
X75455623Y-54609468D01*
X75504388Y-54641187D01*
X75548849Y-54678356D01*
X75571685Y-54701644D01*
X75584348Y-54716299D01*
X75598366Y-54733697D01*
X75612746Y-54752463D01*
X75626500Y-54771222D01*
X75638635Y-54788599D01*
X75648162Y-54803217D01*
X75654088Y-54813703D01*
X75655575Y-54818083D01*
X75652196Y-54822320D01*
X75643434Y-54829040D01*
X75633455Y-54835407D01*
X75622792Y-54841725D01*
X75606431Y-54851422D01*
X75585954Y-54863562D01*
X75562946Y-54877203D01*
X75538990Y-54891409D01*
X75538838Y-54891499D01*
X75516466Y-54904652D01*
X75496489Y-54916179D01*
X75480077Y-54925425D01*
X75468397Y-54931732D01*
X75462619Y-54934444D01*
X75462319Y-54934500D01*
X75458436Y-54931148D01*
X75451382Y-54922166D01*
X75442371Y-54909163D01*
X75437534Y-54901692D01*
X75409585Y-54863204D01*
X75379277Y-54832562D01*
X75346074Y-54809343D01*
X75309438Y-54793125D01*
X75294019Y-54788584D01*
X75273581Y-54784994D01*
X75247843Y-54782872D01*
X75219848Y-54782263D01*
X75192643Y-54783208D01*
X75169271Y-54785751D01*
X75163883Y-54786744D01*
X75131462Y-54796680D01*
X75099486Y-54812360D01*
X75069686Y-54832501D01*
X75043793Y-54855821D01*
X75023538Y-54881040D01*
X75014410Y-54897414D01*
X75001599Y-54934206D01*
X74997033Y-54970196D01*
X75000647Y-55004901D01*
X75012379Y-55037840D01*
X75032164Y-55068530D01*
X75037871Y-55075246D01*
X75053733Y-55091248D01*
X75072361Y-55106414D01*
X75094704Y-55121291D01*
X75121715Y-55136427D01*
X75154343Y-55152369D01*
X75193541Y-55169662D01*
X75224000Y-55182298D01*
X75247314Y-55191786D01*
X75274466Y-55202842D01*
X75301451Y-55213835D01*
X75317133Y-55220226D01*
X75386214Y-55250790D01*
X75447498Y-55283043D01*
X75501543Y-55317309D01*
X75548910Y-55353910D01*
X75549966Y-55354817D01*
X75589936Y-55393421D01*
X75623101Y-55434907D01*
X75650081Y-55480347D01*
X75671495Y-55530810D01*
X75687963Y-55587367D01*
X75690173Y-55597016D01*
X75692984Y-55615809D01*
X75694824Y-55640910D01*
X75695711Y-55670221D01*
X75695666Y-55701641D01*
X75694711Y-55733071D01*
X75692864Y-55762411D01*
X75690147Y-55787562D01*
X75688208Y-55799264D01*
X75673191Y-55858358D01*
X75652129Y-55912662D01*
X75624447Y-55963191D01*
X75589572Y-56010960D01*
X75546932Y-56056985D01*
X75537769Y-56065744D01*
X75488892Y-56105888D01*
X75435276Y-56139027D01*
X75376998Y-56165118D01*
X75323483Y-56181819D01*
X75307053Y-56185765D01*
X75291844Y-56188701D01*
X75276005Y-56190811D01*
X75257679Y-56192278D01*
X75235014Y-56193285D01*
X75206154Y-56194016D01*
X75198600Y-56194161D01*
X75158237Y-56194495D01*
X75125640Y-56193835D01*
X75100163Y-56192159D01*
X75084300Y-56190040D01*
X75020633Y-56174786D01*
X74961644Y-56152534D01*
X74907431Y-56123338D01*
X74858091Y-56087255D01*
X74813721Y-56044339D01*
X74798458Y-56026587D01*
X74774182Y-55996915D01*
X74796844Y-55972649D01*
X74807868Y-55960912D01*
X74816645Y-55951691D01*
X74821591Y-55946648D01*
X74822006Y-55946267D01*
X74829271Y-55938666D01*
X74840107Y-55925523D01*
X74853402Y-55908345D01*
X74868043Y-55888644D01*
X74882916Y-55867929D01*
X74896909Y-55847708D01*
X74908909Y-55829491D01*
X74913298Y-55822454D01*
X74941742Y-55775785D01*
X74950910Y-55802817D01*
X74960619Y-55828826D01*
X74970789Y-55849767D01*
X74983142Y-55868944D01*
X74990436Y-55878598D01*
X75020322Y-55909967D01*
X75055477Y-55934882D01*
X75095467Y-55953150D01*
X75139862Y-55964576D01*
X75188230Y-55968968D01*
X75192250Y-55969010D01*
X75225682Y-55967944D01*
X75254327Y-55963920D01*
X75281566Y-55956214D01*
X75310780Y-55944099D01*
X75312900Y-55943108D01*
X75338735Y-55927828D01*
X75365138Y-55906779D01*
X75389828Y-55882163D01*
X75410521Y-55856185D01*
X75421435Y-55838316D01*
X75438639Y-55796977D01*
X75448888Y-55753035D01*
X75452137Y-55708055D01*
X75448339Y-55663601D01*
X75437448Y-55621239D01*
X75428462Y-55599490D01*
X75409434Y-55568320D01*
X75382687Y-55537848D01*
X75348972Y-55508677D01*
X75309036Y-55481406D01*
X75263628Y-55456638D01*
X75233521Y-55442997D01*
X75216064Y-55435641D01*
X75192955Y-55425888D01*
X75166335Y-55414643D01*
X75138348Y-55402811D01*
X75113933Y-55392482D01*
X75035616Y-55359335D01*
X75032583Y-55314200D01*
X75022930Y-55230030D01*
X75005434Y-55148929D01*
X74979992Y-55070591D01*
X74946502Y-54994710D01*
X74904860Y-54920981D01*
X74894494Y-54904867D01*
X74880343Y-54884128D01*
X74864821Y-54862630D01*
X74850033Y-54843230D01*
X74840371Y-54831402D01*
X74827893Y-54816804D01*
X74816384Y-54803251D01*
X74807796Y-54793042D01*
X74805910Y-54790769D01*
X74796338Y-54779150D01*
X74813283Y-54754166D01*
X74829540Y-54732833D01*
X74850703Y-54708903D01*
X74874670Y-54684533D01*
X74899339Y-54661874D01*
X74919200Y-54645639D01*
X74938413Y-54632587D01*
X74963012Y-54618160D01*
X74990368Y-54603716D01*
X75017853Y-54590614D01*
X75042838Y-54580210D01*
X75052331Y-54576848D01*
X75099002Y-54564567D01*
X75150264Y-54556427D01*
X75203747Y-54552512D01*
X75257082Y-54552905D01*
G37*
X75257082Y-54552905D02*
X75307899Y-54557688D01*
X75351682Y-54566374D01*
X75404179Y-54584197D01*
X75455623Y-54609468D01*
X75504388Y-54641187D01*
X75548849Y-54678356D01*
X75571685Y-54701644D01*
X75584348Y-54716299D01*
X75598366Y-54733697D01*
X75612746Y-54752463D01*
X75626500Y-54771222D01*
X75638635Y-54788599D01*
X75648162Y-54803217D01*
X75654088Y-54813703D01*
X75655575Y-54818083D01*
X75652196Y-54822320D01*
X75643434Y-54829040D01*
X75633455Y-54835407D01*
X75622792Y-54841725D01*
X75606431Y-54851422D01*
X75585954Y-54863562D01*
X75562946Y-54877203D01*
X75538990Y-54891409D01*
X75538838Y-54891499D01*
X75516466Y-54904652D01*
X75496489Y-54916179D01*
X75480077Y-54925425D01*
X75468397Y-54931732D01*
X75462619Y-54934444D01*
X75462319Y-54934500D01*
X75458436Y-54931148D01*
X75451382Y-54922166D01*
X75442371Y-54909163D01*
X75437534Y-54901692D01*
X75409585Y-54863204D01*
X75379277Y-54832562D01*
X75346074Y-54809343D01*
X75309438Y-54793125D01*
X75294019Y-54788584D01*
X75273581Y-54784994D01*
X75247843Y-54782872D01*
X75219848Y-54782263D01*
X75192643Y-54783208D01*
X75169271Y-54785751D01*
X75163883Y-54786744D01*
X75131462Y-54796680D01*
X75099486Y-54812360D01*
X75069686Y-54832501D01*
X75043793Y-54855821D01*
X75023538Y-54881040D01*
X75014410Y-54897414D01*
X75001599Y-54934206D01*
X74997033Y-54970196D01*
X75000647Y-55004901D01*
X75012379Y-55037840D01*
X75032164Y-55068530D01*
X75037871Y-55075246D01*
X75053733Y-55091248D01*
X75072361Y-55106414D01*
X75094704Y-55121291D01*
X75121715Y-55136427D01*
X75154343Y-55152369D01*
X75193541Y-55169662D01*
X75224000Y-55182298D01*
X75247314Y-55191786D01*
X75274466Y-55202842D01*
X75301451Y-55213835D01*
X75317133Y-55220226D01*
X75386214Y-55250790D01*
X75447498Y-55283043D01*
X75501543Y-55317309D01*
X75548910Y-55353910D01*
X75549966Y-55354817D01*
X75589936Y-55393421D01*
X75623101Y-55434907D01*
X75650081Y-55480347D01*
X75671495Y-55530810D01*
X75687963Y-55587367D01*
X75690173Y-55597016D01*
X75692984Y-55615809D01*
X75694824Y-55640910D01*
X75695711Y-55670221D01*
X75695666Y-55701641D01*
X75694711Y-55733071D01*
X75692864Y-55762411D01*
X75690147Y-55787562D01*
X75688208Y-55799264D01*
X75673191Y-55858358D01*
X75652129Y-55912662D01*
X75624447Y-55963191D01*
X75589572Y-56010960D01*
X75546932Y-56056985D01*
X75537769Y-56065744D01*
X75488892Y-56105888D01*
X75435276Y-56139027D01*
X75376998Y-56165118D01*
X75323483Y-56181819D01*
X75307053Y-56185765D01*
X75291844Y-56188701D01*
X75276005Y-56190811D01*
X75257679Y-56192278D01*
X75235014Y-56193285D01*
X75206154Y-56194016D01*
X75198600Y-56194161D01*
X75158237Y-56194495D01*
X75125640Y-56193835D01*
X75100163Y-56192159D01*
X75084300Y-56190040D01*
X75020633Y-56174786D01*
X74961644Y-56152534D01*
X74907431Y-56123338D01*
X74858091Y-56087255D01*
X74813721Y-56044339D01*
X74798458Y-56026587D01*
X74774182Y-55996915D01*
X74796844Y-55972649D01*
X74807868Y-55960912D01*
X74816645Y-55951691D01*
X74821591Y-55946648D01*
X74822006Y-55946267D01*
X74829271Y-55938666D01*
X74840107Y-55925523D01*
X74853402Y-55908345D01*
X74868043Y-55888644D01*
X74882916Y-55867929D01*
X74896909Y-55847708D01*
X74908909Y-55829491D01*
X74913298Y-55822454D01*
X74941742Y-55775785D01*
X74950910Y-55802817D01*
X74960619Y-55828826D01*
X74970789Y-55849767D01*
X74983142Y-55868944D01*
X74990436Y-55878598D01*
X75020322Y-55909967D01*
X75055477Y-55934882D01*
X75095467Y-55953150D01*
X75139862Y-55964576D01*
X75188230Y-55968968D01*
X75192250Y-55969010D01*
X75225682Y-55967944D01*
X75254327Y-55963920D01*
X75281566Y-55956214D01*
X75310780Y-55944099D01*
X75312900Y-55943108D01*
X75338735Y-55927828D01*
X75365138Y-55906779D01*
X75389828Y-55882163D01*
X75410521Y-55856185D01*
X75421435Y-55838316D01*
X75438639Y-55796977D01*
X75448888Y-55753035D01*
X75452137Y-55708055D01*
X75448339Y-55663601D01*
X75437448Y-55621239D01*
X75428462Y-55599490D01*
X75409434Y-55568320D01*
X75382687Y-55537848D01*
X75348972Y-55508677D01*
X75309036Y-55481406D01*
X75263628Y-55456638D01*
X75233521Y-55442997D01*
X75216064Y-55435641D01*
X75192955Y-55425888D01*
X75166335Y-55414643D01*
X75138348Y-55402811D01*
X75113933Y-55392482D01*
X75035616Y-55359335D01*
X75032583Y-55314200D01*
X75022930Y-55230030D01*
X75005434Y-55148929D01*
X74979992Y-55070591D01*
X74946502Y-54994710D01*
X74904860Y-54920981D01*
X74894494Y-54904867D01*
X74880343Y-54884128D01*
X74864821Y-54862630D01*
X74850033Y-54843230D01*
X74840371Y-54831402D01*
X74827893Y-54816804D01*
X74816384Y-54803251D01*
X74807796Y-54793042D01*
X74805910Y-54790769D01*
X74796338Y-54779150D01*
X74813283Y-54754166D01*
X74829540Y-54732833D01*
X74850703Y-54708903D01*
X74874670Y-54684533D01*
X74899339Y-54661874D01*
X74919200Y-54645639D01*
X74938413Y-54632587D01*
X74963012Y-54618160D01*
X74990368Y-54603716D01*
X75017853Y-54590614D01*
X75042838Y-54580210D01*
X75052331Y-54576848D01*
X75099002Y-54564567D01*
X75150264Y-54556427D01*
X75203747Y-54552512D01*
X75257082Y-54552905D01*
G36*
X74186452Y-54554680D02*
G01*
X74264409Y-54559686D01*
X74337197Y-54570586D01*
X74406049Y-54587738D01*
X74472200Y-54611497D01*
X74536885Y-54642222D01*
X74584808Y-54669822D01*
X74602238Y-54680718D01*
X74616338Y-54689966D01*
X74629218Y-54699103D01*
X74642988Y-54709667D01*
X74659758Y-54723194D01*
X74672970Y-54734060D01*
X74738518Y-54792877D01*
X74796165Y-54854654D01*
X74846002Y-54919549D01*
X74888115Y-54987719D01*
X74922596Y-55059320D01*
X74949532Y-55134511D01*
X74969012Y-55213448D01*
X74978721Y-55274702D01*
X74981427Y-55306625D01*
X74982640Y-55344353D01*
X74982449Y-55385619D01*
X74980943Y-55428154D01*
X74978212Y-55469692D01*
X74974346Y-55507964D01*
X74969433Y-55540704D01*
X74967932Y-55548333D01*
X74948379Y-55624327D01*
X74922339Y-55695861D01*
X74889404Y-55763702D01*
X74849164Y-55828615D01*
X74801211Y-55891365D01*
X74760343Y-55937043D01*
X74698959Y-55995931D01*
X74633914Y-56047242D01*
X74564964Y-56091113D01*
X74491862Y-56127678D01*
X74414364Y-56157071D01*
X74332222Y-56179427D01*
X74309600Y-56184198D01*
X74293253Y-56187274D01*
X74278112Y-56189629D01*
X74262663Y-56191357D01*
X74245393Y-56192551D01*
X74224790Y-56193306D01*
X74199341Y-56193714D01*
X74167534Y-56193869D01*
X74152967Y-56193882D01*
X74110792Y-56193641D01*
X74075366Y-56192773D01*
X74044979Y-56191078D01*
X74017925Y-56188353D01*
X73992495Y-56184398D01*
X73966981Y-56179011D01*
X73939676Y-56171992D01*
X73920133Y-56166451D01*
X73844332Y-56140128D01*
X73770467Y-56106063D01*
X73699734Y-56064947D01*
X73633326Y-56017471D01*
X73574427Y-55966242D01*
X73539872Y-55933109D01*
X73560397Y-55889946D01*
X73570737Y-55866537D01*
X73581218Y-55840035D01*
X73590196Y-55814702D01*
X73593513Y-55804126D01*
X73600092Y-55779215D01*
X73606329Y-55750879D01*
X73611807Y-55721517D01*
X73616111Y-55693532D01*
X73618823Y-55669322D01*
X73619567Y-55654038D01*
X73620512Y-55641844D01*
X73623253Y-55637843D01*
X73627643Y-55642093D01*
X73631312Y-55649309D01*
X73640632Y-55666927D01*
X73654524Y-55688793D01*
X73671658Y-55713084D01*
X73690700Y-55737981D01*
X73710318Y-55761662D01*
X73726729Y-55779764D01*
X73779477Y-55830002D01*
X73834177Y-55872212D01*
X73891393Y-55906718D01*
X73951689Y-55933842D01*
X74015628Y-55953908D01*
X74039794Y-55959498D01*
X74073142Y-55964733D01*
X74111991Y-55967902D01*
X74153624Y-55968979D01*
X74195326Y-55967935D01*
X74234379Y-55964743D01*
X74255908Y-55961701D01*
X74321964Y-55946234D01*
X74385381Y-55923003D01*
X74445562Y-55892462D01*
X74501912Y-55855064D01*
X74553833Y-55811262D01*
X74600728Y-55761509D01*
X74642001Y-55706258D01*
X74677055Y-55645963D01*
X74680354Y-55639350D01*
X74703920Y-55584396D01*
X74721043Y-55528020D01*
X74732047Y-55468723D01*
X74737259Y-55405007D01*
X74737801Y-55374767D01*
X74734109Y-55301061D01*
X74722960Y-55231310D01*
X74704295Y-55165352D01*
X74678055Y-55103028D01*
X74644184Y-55044178D01*
X74602622Y-54988641D01*
X74594289Y-54978950D01*
X74544349Y-54928112D01*
X74490137Y-54884579D01*
X74431588Y-54848314D01*
X74368642Y-54819279D01*
X74301233Y-54797438D01*
X74279967Y-54792245D01*
X74258669Y-54788692D01*
X74231090Y-54785962D01*
X74199378Y-54784099D01*
X74165682Y-54783141D01*
X74132150Y-54783130D01*
X74100931Y-54784108D01*
X74074174Y-54786115D01*
X74059833Y-54788052D01*
X73991616Y-54803314D01*
X73928675Y-54824863D01*
X73870169Y-54853135D01*
X73815254Y-54888564D01*
X73763089Y-54931587D01*
X73740940Y-54952884D01*
X73694041Y-55005309D01*
X73654977Y-55060689D01*
X73623495Y-55119469D01*
X73599341Y-55182097D01*
X73587762Y-55223776D01*
X73583475Y-55242673D01*
X73579906Y-55261052D01*
X73576985Y-55279922D01*
X73574648Y-55300292D01*
X73572828Y-55323174D01*
X73571456Y-55349576D01*
X73570467Y-55380510D01*
X73569793Y-55416984D01*
X73569368Y-55460008D01*
X73569143Y-55504960D01*
X73568948Y-55547973D01*
X73568658Y-55583610D01*
X73568225Y-55612960D01*
X73567604Y-55637113D01*
X73566746Y-55657158D01*
X73565605Y-55674186D01*
X73564133Y-55689287D01*
X73562284Y-55703550D01*
X73560010Y-55718065D01*
X73559896Y-55718743D01*
X73544442Y-55787815D01*
X73521995Y-55852139D01*
X73492507Y-55911809D01*
X73455931Y-55966917D01*
X73412222Y-56017555D01*
X73405555Y-56024269D01*
X73351492Y-56072247D01*
X73294008Y-56112482D01*
X73233074Y-56144990D01*
X73168662Y-56169785D01*
X73100742Y-56186882D01*
X73084176Y-56189799D01*
X73063155Y-56192255D01*
X73036048Y-56194031D01*
X73005180Y-56195106D01*
X72972873Y-56195462D01*
X72941452Y-56195079D01*
X72913240Y-56193939D01*
X72890560Y-56192023D01*
X72886084Y-56191429D01*
X72822450Y-56178832D01*
X72763126Y-56160035D01*
X72706639Y-56134414D01*
X72651514Y-56101349D01*
X72620755Y-56079396D01*
X72568025Y-56034528D01*
X72521635Y-55984326D01*
X72481927Y-55929324D01*
X72449241Y-55870059D01*
X72423920Y-55807064D01*
X72407117Y-55744824D01*
X72404872Y-55733485D01*
X72402857Y-55721728D01*
X72401060Y-55709061D01*
X72399468Y-55694991D01*
X72398070Y-55679025D01*
X72396853Y-55660670D01*
X72395805Y-55639434D01*
X72394913Y-55614824D01*
X72394165Y-55586348D01*
X72393550Y-55553512D01*
X72393055Y-55515824D01*
X72392667Y-55472792D01*
X72392375Y-55423922D01*
X72392166Y-55368723D01*
X72392029Y-55306700D01*
X72391949Y-55237362D01*
X72391917Y-55160216D01*
X72391914Y-55132408D01*
X72391900Y-54646633D01*
X72637433Y-54646633D01*
X72637433Y-55124611D01*
X72637446Y-55200153D01*
X72637487Y-55267731D01*
X72637564Y-55327845D01*
X72637683Y-55380998D01*
X72637850Y-55427691D01*
X72638072Y-55468427D01*
X72638355Y-55503706D01*
X72638705Y-55534032D01*
X72639129Y-55559905D01*
X72639634Y-55581828D01*
X72640225Y-55600302D01*
X72640910Y-55615829D01*
X72641694Y-55628910D01*
X72642583Y-55640049D01*
X72643586Y-55649745D01*
X72644199Y-55654740D01*
X72653353Y-55709378D01*
X72665739Y-55756587D01*
X72681512Y-55796826D01*
X72700827Y-55830554D01*
X72706450Y-55838316D01*
X72741887Y-55878296D01*
X72782012Y-55911226D01*
X72826774Y-55937075D01*
X72876122Y-55955809D01*
X72897783Y-55961452D01*
X72928509Y-55966414D01*
X72964119Y-55968868D01*
X73001410Y-55968816D01*
X73037181Y-55966256D01*
X73067117Y-55961440D01*
X73116269Y-55946310D01*
X73161523Y-55923996D01*
X73202232Y-55895125D01*
X73237755Y-55860318D01*
X73267449Y-55820201D01*
X73290668Y-55775398D01*
X73305969Y-55729755D01*
X73310633Y-55710535D01*
X73314473Y-55692308D01*
X73317575Y-55673964D01*
X73320025Y-55654393D01*
X73321909Y-55632483D01*
X73323312Y-55607124D01*
X73324321Y-55577206D01*
X73325020Y-55541619D01*
X73325495Y-55499251D01*
X73325682Y-55474250D01*
X73325999Y-55437001D01*
X73326438Y-55401025D01*
X73326976Y-55367542D01*
X73327588Y-55337774D01*
X73328248Y-55312939D01*
X73328932Y-55294258D01*
X73329544Y-55283750D01*
X73340049Y-55208299D01*
X73358694Y-55133886D01*
X73385158Y-55061180D01*
X73419124Y-54990847D01*
X73460271Y-54923557D01*
X73508282Y-54859976D01*
X73558054Y-54805517D01*
X73616739Y-54750777D01*
X73675811Y-54703807D01*
X73736313Y-54663936D01*
X73799293Y-54630495D01*
X73865796Y-54602813D01*
X73884150Y-54596354D01*
X73936894Y-54580152D01*
X73988152Y-54568119D01*
X74040020Y-54559968D01*
X74094598Y-54555409D01*
X74153984Y-54554152D01*
X74186452Y-54554680D01*
G37*
X74186452Y-54554680D02*
X74264409Y-54559686D01*
X74337197Y-54570586D01*
X74406049Y-54587738D01*
X74472200Y-54611497D01*
X74536885Y-54642222D01*
X74584808Y-54669822D01*
X74602238Y-54680718D01*
X74616338Y-54689966D01*
X74629218Y-54699103D01*
X74642988Y-54709667D01*
X74659758Y-54723194D01*
X74672970Y-54734060D01*
X74738518Y-54792877D01*
X74796165Y-54854654D01*
X74846002Y-54919549D01*
X74888115Y-54987719D01*
X74922596Y-55059320D01*
X74949532Y-55134511D01*
X74969012Y-55213448D01*
X74978721Y-55274702D01*
X74981427Y-55306625D01*
X74982640Y-55344353D01*
X74982449Y-55385619D01*
X74980943Y-55428154D01*
X74978212Y-55469692D01*
X74974346Y-55507964D01*
X74969433Y-55540704D01*
X74967932Y-55548333D01*
X74948379Y-55624327D01*
X74922339Y-55695861D01*
X74889404Y-55763702D01*
X74849164Y-55828615D01*
X74801211Y-55891365D01*
X74760343Y-55937043D01*
X74698959Y-55995931D01*
X74633914Y-56047242D01*
X74564964Y-56091113D01*
X74491862Y-56127678D01*
X74414364Y-56157071D01*
X74332222Y-56179427D01*
X74309600Y-56184198D01*
X74293253Y-56187274D01*
X74278112Y-56189629D01*
X74262663Y-56191357D01*
X74245393Y-56192551D01*
X74224790Y-56193306D01*
X74199341Y-56193714D01*
X74167534Y-56193869D01*
X74152967Y-56193882D01*
X74110792Y-56193641D01*
X74075366Y-56192773D01*
X74044979Y-56191078D01*
X74017925Y-56188353D01*
X73992495Y-56184398D01*
X73966981Y-56179011D01*
X73939676Y-56171992D01*
X73920133Y-56166451D01*
X73844332Y-56140128D01*
X73770467Y-56106063D01*
X73699734Y-56064947D01*
X73633326Y-56017471D01*
X73574427Y-55966242D01*
X73539872Y-55933109D01*
X73560397Y-55889946D01*
X73570737Y-55866537D01*
X73581218Y-55840035D01*
X73590196Y-55814702D01*
X73593513Y-55804126D01*
X73600092Y-55779215D01*
X73606329Y-55750879D01*
X73611807Y-55721517D01*
X73616111Y-55693532D01*
X73618823Y-55669322D01*
X73619567Y-55654038D01*
X73620512Y-55641844D01*
X73623253Y-55637843D01*
X73627643Y-55642093D01*
X73631312Y-55649309D01*
X73640632Y-55666927D01*
X73654524Y-55688793D01*
X73671658Y-55713084D01*
X73690700Y-55737981D01*
X73710318Y-55761662D01*
X73726729Y-55779764D01*
X73779477Y-55830002D01*
X73834177Y-55872212D01*
X73891393Y-55906718D01*
X73951689Y-55933842D01*
X74015628Y-55953908D01*
X74039794Y-55959498D01*
X74073142Y-55964733D01*
X74111991Y-55967902D01*
X74153624Y-55968979D01*
X74195326Y-55967935D01*
X74234379Y-55964743D01*
X74255908Y-55961701D01*
X74321964Y-55946234D01*
X74385381Y-55923003D01*
X74445562Y-55892462D01*
X74501912Y-55855064D01*
X74553833Y-55811262D01*
X74600728Y-55761509D01*
X74642001Y-55706258D01*
X74677055Y-55645963D01*
X74680354Y-55639350D01*
X74703920Y-55584396D01*
X74721043Y-55528020D01*
X74732047Y-55468723D01*
X74737259Y-55405007D01*
X74737801Y-55374767D01*
X74734109Y-55301061D01*
X74722960Y-55231310D01*
X74704295Y-55165352D01*
X74678055Y-55103028D01*
X74644184Y-55044178D01*
X74602622Y-54988641D01*
X74594289Y-54978950D01*
X74544349Y-54928112D01*
X74490137Y-54884579D01*
X74431588Y-54848314D01*
X74368642Y-54819279D01*
X74301233Y-54797438D01*
X74279967Y-54792245D01*
X74258669Y-54788692D01*
X74231090Y-54785962D01*
X74199378Y-54784099D01*
X74165682Y-54783141D01*
X74132150Y-54783130D01*
X74100931Y-54784108D01*
X74074174Y-54786115D01*
X74059833Y-54788052D01*
X73991616Y-54803314D01*
X73928675Y-54824863D01*
X73870169Y-54853135D01*
X73815254Y-54888564D01*
X73763089Y-54931587D01*
X73740940Y-54952884D01*
X73694041Y-55005309D01*
X73654977Y-55060689D01*
X73623495Y-55119469D01*
X73599341Y-55182097D01*
X73587762Y-55223776D01*
X73583475Y-55242673D01*
X73579906Y-55261052D01*
X73576985Y-55279922D01*
X73574648Y-55300292D01*
X73572828Y-55323174D01*
X73571456Y-55349576D01*
X73570467Y-55380510D01*
X73569793Y-55416984D01*
X73569368Y-55460008D01*
X73569143Y-55504960D01*
X73568948Y-55547973D01*
X73568658Y-55583610D01*
X73568225Y-55612960D01*
X73567604Y-55637113D01*
X73566746Y-55657158D01*
X73565605Y-55674186D01*
X73564133Y-55689287D01*
X73562284Y-55703550D01*
X73560010Y-55718065D01*
X73559896Y-55718743D01*
X73544442Y-55787815D01*
X73521995Y-55852139D01*
X73492507Y-55911809D01*
X73455931Y-55966917D01*
X73412222Y-56017555D01*
X73405555Y-56024269D01*
X73351492Y-56072247D01*
X73294008Y-56112482D01*
X73233074Y-56144990D01*
X73168662Y-56169785D01*
X73100742Y-56186882D01*
X73084176Y-56189799D01*
X73063155Y-56192255D01*
X73036048Y-56194031D01*
X73005180Y-56195106D01*
X72972873Y-56195462D01*
X72941452Y-56195079D01*
X72913240Y-56193939D01*
X72890560Y-56192023D01*
X72886084Y-56191429D01*
X72822450Y-56178832D01*
X72763126Y-56160035D01*
X72706639Y-56134414D01*
X72651514Y-56101349D01*
X72620755Y-56079396D01*
X72568025Y-56034528D01*
X72521635Y-55984326D01*
X72481927Y-55929324D01*
X72449241Y-55870059D01*
X72423920Y-55807064D01*
X72407117Y-55744824D01*
X72404872Y-55733485D01*
X72402857Y-55721728D01*
X72401060Y-55709061D01*
X72399468Y-55694991D01*
X72398070Y-55679025D01*
X72396853Y-55660670D01*
X72395805Y-55639434D01*
X72394913Y-55614824D01*
X72394165Y-55586348D01*
X72393550Y-55553512D01*
X72393055Y-55515824D01*
X72392667Y-55472792D01*
X72392375Y-55423922D01*
X72392166Y-55368723D01*
X72392029Y-55306700D01*
X72391949Y-55237362D01*
X72391917Y-55160216D01*
X72391914Y-55132408D01*
X72391900Y-54646633D01*
X72637433Y-54646633D01*
X72637433Y-55124611D01*
X72637446Y-55200153D01*
X72637487Y-55267731D01*
X72637564Y-55327845D01*
X72637683Y-55380998D01*
X72637850Y-55427691D01*
X72638072Y-55468427D01*
X72638355Y-55503706D01*
X72638705Y-55534032D01*
X72639129Y-55559905D01*
X72639634Y-55581828D01*
X72640225Y-55600302D01*
X72640910Y-55615829D01*
X72641694Y-55628910D01*
X72642583Y-55640049D01*
X72643586Y-55649745D01*
X72644199Y-55654740D01*
X72653353Y-55709378D01*
X72665739Y-55756587D01*
X72681512Y-55796826D01*
X72700827Y-55830554D01*
X72706450Y-55838316D01*
X72741887Y-55878296D01*
X72782012Y-55911226D01*
X72826774Y-55937075D01*
X72876122Y-55955809D01*
X72897783Y-55961452D01*
X72928509Y-55966414D01*
X72964119Y-55968868D01*
X73001410Y-55968816D01*
X73037181Y-55966256D01*
X73067117Y-55961440D01*
X73116269Y-55946310D01*
X73161523Y-55923996D01*
X73202232Y-55895125D01*
X73237755Y-55860318D01*
X73267449Y-55820201D01*
X73290668Y-55775398D01*
X73305969Y-55729755D01*
X73310633Y-55710535D01*
X73314473Y-55692308D01*
X73317575Y-55673964D01*
X73320025Y-55654393D01*
X73321909Y-55632483D01*
X73323312Y-55607124D01*
X73324321Y-55577206D01*
X73325020Y-55541619D01*
X73325495Y-55499251D01*
X73325682Y-55474250D01*
X73325999Y-55437001D01*
X73326438Y-55401025D01*
X73326976Y-55367542D01*
X73327588Y-55337774D01*
X73328248Y-55312939D01*
X73328932Y-55294258D01*
X73329544Y-55283750D01*
X73340049Y-55208299D01*
X73358694Y-55133886D01*
X73385158Y-55061180D01*
X73419124Y-54990847D01*
X73460271Y-54923557D01*
X73508282Y-54859976D01*
X73558054Y-54805517D01*
X73616739Y-54750777D01*
X73675811Y-54703807D01*
X73736313Y-54663936D01*
X73799293Y-54630495D01*
X73865796Y-54602813D01*
X73884150Y-54596354D01*
X73936894Y-54580152D01*
X73988152Y-54568119D01*
X74040020Y-54559968D01*
X74094598Y-54555409D01*
X74153984Y-54554152D01*
X74186452Y-54554680D01*
G36*
X79108035Y-55721373D02*
G01*
X79129492Y-55733203D01*
X79163070Y-55752027D01*
X79207496Y-55777114D01*
X79261493Y-55807735D01*
X79323788Y-55843158D01*
X79393104Y-55882653D01*
X79468168Y-55925489D01*
X79547705Y-55970937D01*
X79630439Y-56018266D01*
X79715096Y-56066744D01*
X79800400Y-56115643D01*
X79885078Y-56164231D01*
X79967853Y-56211777D01*
X80047452Y-56257552D01*
X80122599Y-56300824D01*
X80192019Y-56340864D01*
X80254438Y-56376941D01*
X80308580Y-56408325D01*
X80353172Y-56434284D01*
X80386937Y-56454089D01*
X80408601Y-56467009D01*
X80410217Y-56467995D01*
X80429267Y-56479657D01*
X80429137Y-57239345D01*
X80429050Y-57351406D01*
X80428835Y-57458684D01*
X80428501Y-57559965D01*
X80428059Y-57654031D01*
X80427519Y-57739666D01*
X80426891Y-57815654D01*
X80426185Y-57880779D01*
X80425410Y-57933825D01*
X80424578Y-57973575D01*
X80423697Y-57998813D01*
X80422787Y-58008312D01*
X80414538Y-58014057D01*
X80392892Y-58027441D01*
X80359121Y-58047730D01*
X80314500Y-58074190D01*
X80260299Y-58106086D01*
X80197791Y-58142684D01*
X80128249Y-58183252D01*
X80052945Y-58227053D01*
X79973152Y-58273355D01*
X79890142Y-58321423D01*
X79805188Y-58370523D01*
X79719562Y-58419922D01*
X79634536Y-58468884D01*
X79551383Y-58516676D01*
X79471376Y-58562565D01*
X79395786Y-58605815D01*
X79325887Y-58645692D01*
X79262951Y-58681464D01*
X79208250Y-58712394D01*
X79163057Y-58737751D01*
X79128644Y-58756799D01*
X79106284Y-58768804D01*
X79097249Y-58773032D01*
X79097205Y-58773032D01*
X79088574Y-58768775D01*
X79066354Y-58756617D01*
X79031600Y-58737160D01*
X78985366Y-58711007D01*
X78928709Y-58678760D01*
X78862681Y-58641024D01*
X78788337Y-58598399D01*
X78706733Y-58551490D01*
X78618922Y-58500898D01*
X78525959Y-58447226D01*
X78429017Y-58391146D01*
X77770734Y-58009961D01*
X77770734Y-57993336D01*
X77869005Y-57993336D01*
X77875697Y-57998102D01*
X77895668Y-58010550D01*
X77927546Y-58029875D01*
X77969956Y-58055275D01*
X78021523Y-58085945D01*
X78080875Y-58121083D01*
X78146636Y-58159884D01*
X78217433Y-58201546D01*
X78291892Y-58245264D01*
X78368638Y-58290235D01*
X78446298Y-58335656D01*
X78523497Y-58380723D01*
X78598862Y-58424633D01*
X78671018Y-58466581D01*
X78738591Y-58505765D01*
X78800208Y-58541381D01*
X78854494Y-58572626D01*
X78900074Y-58598695D01*
X78935576Y-58618786D01*
X78959625Y-58632095D01*
X78970846Y-58637818D01*
X78971383Y-58637979D01*
X78970232Y-58632476D01*
X78967608Y-58627683D01*
X78961536Y-58619606D01*
X78946050Y-58599610D01*
X78922226Y-58569066D01*
X78891146Y-58529345D01*
X78853888Y-58481818D01*
X78811531Y-58427856D01*
X78765154Y-58368828D01*
X78715837Y-58306107D01*
X78664659Y-58241061D01*
X78612700Y-58175063D01*
X78561037Y-58109482D01*
X78510752Y-58045690D01*
X78462922Y-57985057D01*
X78418627Y-57928954D01*
X78378947Y-57878750D01*
X78344960Y-57835818D01*
X78317745Y-57801528D01*
X78298383Y-57777250D01*
X78287952Y-57764355D01*
X78286609Y-57762783D01*
X78278166Y-57765195D01*
X78257359Y-57774817D01*
X78226484Y-57790382D01*
X78187835Y-57810621D01*
X78143710Y-57834269D01*
X78096402Y-57860057D01*
X78048206Y-57886719D01*
X78001420Y-57912987D01*
X77958336Y-57937594D01*
X77921252Y-57959273D01*
X77892462Y-57976758D01*
X77874261Y-57988779D01*
X77869005Y-57993336D01*
X77770734Y-57993336D01*
X77770734Y-57944343D01*
X77830000Y-57944343D01*
X77874450Y-57918767D01*
X77895034Y-57906959D01*
X77927445Y-57888411D01*
X77968796Y-57864772D01*
X78016206Y-57837689D01*
X78066790Y-57808812D01*
X78084684Y-57798601D01*
X78163730Y-57753500D01*
X78354562Y-57753500D01*
X78723779Y-58221283D01*
X78785116Y-58298871D01*
X78843462Y-58372438D01*
X78897961Y-58440919D01*
X78947760Y-58503253D01*
X78992003Y-58558375D01*
X79029835Y-58605224D01*
X79060401Y-58642735D01*
X79082846Y-58669846D01*
X79096315Y-58685493D01*
X79100000Y-58689067D01*
X79106276Y-58682587D01*
X79122160Y-58663858D01*
X79145629Y-58635361D01*
X79227290Y-58635361D01*
X79228302Y-58635798D01*
X79232153Y-58634430D01*
X79239778Y-58630729D01*
X79252109Y-58624171D01*
X79270081Y-58614230D01*
X79294629Y-58600380D01*
X79326685Y-58582096D01*
X79367186Y-58558851D01*
X79417064Y-58530121D01*
X79477254Y-58495379D01*
X79548689Y-58454100D01*
X79632305Y-58405757D01*
X79729035Y-58349826D01*
X79800787Y-58308342D01*
X79887763Y-58257946D01*
X79970235Y-58209941D01*
X80047062Y-58165004D01*
X80117102Y-58123814D01*
X80179214Y-58087048D01*
X80232258Y-58055385D01*
X80275090Y-58029501D01*
X80306572Y-58010077D01*
X80325560Y-57997788D01*
X80331016Y-57993369D01*
X80321827Y-57986034D01*
X80300400Y-57972329D01*
X80269028Y-57953522D01*
X80230009Y-57930879D01*
X80185638Y-57905667D01*
X80138211Y-57879155D01*
X80090022Y-57852609D01*
X80043368Y-57827296D01*
X80000544Y-57804484D01*
X79963847Y-57785439D01*
X79935571Y-57771430D01*
X79918012Y-57763724D01*
X79913299Y-57762783D01*
X79906274Y-57771318D01*
X79889929Y-57791737D01*
X79865345Y-57822667D01*
X79833601Y-57862736D01*
X79795779Y-57910571D01*
X79752957Y-57964800D01*
X79706217Y-58024050D01*
X79656639Y-58086948D01*
X79605303Y-58152123D01*
X79553290Y-58218200D01*
X79501679Y-58283809D01*
X79451551Y-58347576D01*
X79403986Y-58408129D01*
X79360065Y-58464096D01*
X79320868Y-58514103D01*
X79287474Y-58556779D01*
X79260965Y-58590750D01*
X79242421Y-58614644D01*
X79232922Y-58627089D01*
X79231943Y-58628471D01*
X79230044Y-58631172D01*
X79228182Y-58633644D01*
X79227290Y-58635361D01*
X79145629Y-58635361D01*
X79146799Y-58633941D01*
X79179336Y-58593900D01*
X79218917Y-58544798D01*
X79264686Y-58487699D01*
X79315789Y-58423665D01*
X79371371Y-58353759D01*
X79430577Y-58279045D01*
X79476221Y-58221283D01*
X79845439Y-57753500D01*
X79472719Y-57751295D01*
X79374629Y-57750839D01*
X79264588Y-57750540D01*
X79147576Y-57750399D01*
X79028574Y-57750414D01*
X78912563Y-57750588D01*
X78804525Y-57750918D01*
X78727281Y-57751295D01*
X78354562Y-57753500D01*
X78163730Y-57753500D01*
X78250469Y-57704010D01*
X78249732Y-57702139D01*
X79960067Y-57702139D01*
X79961147Y-57707570D01*
X79963659Y-57710864D01*
X79966697Y-57712875D01*
X79978754Y-57719766D01*
X80003297Y-57733872D01*
X80038150Y-57753940D01*
X80081136Y-57778716D01*
X80130078Y-57806945D01*
X80175267Y-57833025D01*
X80226521Y-57862587D01*
X80272719Y-57889182D01*
X80311908Y-57911690D01*
X80342134Y-57928989D01*
X80361442Y-57939960D01*
X80367884Y-57943500D01*
X80368215Y-57935331D01*
X80368519Y-57911525D01*
X80368792Y-57873379D01*
X80369031Y-57822191D01*
X80369232Y-57759256D01*
X80369393Y-57685872D01*
X80369509Y-57603335D01*
X80369578Y-57512942D01*
X80369595Y-57415990D01*
X80369558Y-57313775D01*
X80369548Y-57298417D01*
X80369096Y-56652833D01*
X80158862Y-57177767D01*
X80117379Y-57281381D01*
X80081798Y-57370411D01*
X80051711Y-57445990D01*
X80026713Y-57509248D01*
X80006397Y-57561318D01*
X79990356Y-57603331D01*
X79978185Y-57636418D01*
X79969477Y-57661710D01*
X79963825Y-57680341D01*
X79960824Y-57693439D01*
X79960067Y-57702139D01*
X78249732Y-57702139D01*
X78244950Y-57690000D01*
X78337020Y-57690000D01*
X79862981Y-57690000D01*
X79834974Y-57640834D01*
X79809673Y-57596573D01*
X79778776Y-57542778D01*
X79743014Y-57480707D01*
X79703120Y-57411618D01*
X79659826Y-57336769D01*
X79613864Y-57257418D01*
X79565967Y-57174824D01*
X79516866Y-57090244D01*
X79467294Y-57004937D01*
X79417984Y-56920161D01*
X79369666Y-56837173D01*
X79323074Y-56757233D01*
X79278940Y-56681597D01*
X79237996Y-56611525D01*
X79200975Y-56548273D01*
X79168607Y-56493102D01*
X79141627Y-56447268D01*
X79120765Y-56412029D01*
X79106755Y-56388644D01*
X79100327Y-56378371D01*
X79100000Y-56377996D01*
X79095398Y-56385114D01*
X79083046Y-56405630D01*
X79063677Y-56438285D01*
X79038023Y-56481822D01*
X79006815Y-56534983D01*
X78970786Y-56596509D01*
X78930669Y-56665142D01*
X78887196Y-56739624D01*
X78841098Y-56818697D01*
X78793109Y-56901102D01*
X78743959Y-56985583D01*
X78694383Y-57070880D01*
X78645111Y-57155735D01*
X78596876Y-57238891D01*
X78550410Y-57319089D01*
X78506445Y-57395072D01*
X78465714Y-57465580D01*
X78428949Y-57529356D01*
X78396882Y-57585142D01*
X78370246Y-57631679D01*
X78365027Y-57640834D01*
X78337020Y-57690000D01*
X78244950Y-57690000D01*
X78188501Y-57546722D01*
X78172002Y-57505004D01*
X78150198Y-57450121D01*
X78124108Y-57384620D01*
X78094745Y-57311044D01*
X78063128Y-57231940D01*
X78030271Y-57149852D01*
X77997191Y-57067325D01*
X77978654Y-57021133D01*
X77830774Y-56652833D01*
X77830000Y-57944343D01*
X77770734Y-57944343D01*
X77770733Y-57244809D01*
X77770733Y-56521447D01*
X77852964Y-56521447D01*
X77854912Y-56530084D01*
X77862682Y-56553172D01*
X77875793Y-56589448D01*
X77893761Y-56637647D01*
X77916103Y-56696505D01*
X77942338Y-56764758D01*
X77971983Y-56841142D01*
X78004555Y-56924392D01*
X78039572Y-57013244D01*
X78068771Y-57086880D01*
X78105487Y-57179077D01*
X78140397Y-57266452D01*
X78172997Y-57347764D01*
X78202786Y-57421773D01*
X78229260Y-57487237D01*
X78251916Y-57542916D01*
X78270250Y-57587568D01*
X78283761Y-57619952D01*
X78291946Y-57638829D01*
X78294321Y-57643369D01*
X78298927Y-57635750D01*
X78311403Y-57614533D01*
X78331136Y-57580771D01*
X78357512Y-57535520D01*
X78389918Y-57479836D01*
X78427740Y-57414773D01*
X78470365Y-57341388D01*
X78517179Y-57260734D01*
X78567568Y-57173869D01*
X78620920Y-57081846D01*
X78668939Y-56998980D01*
X78724267Y-56903402D01*
X78777045Y-56812074D01*
X78826670Y-56726050D01*
X78872539Y-56646383D01*
X78914049Y-56574125D01*
X78950596Y-56510329D01*
X78981576Y-56456049D01*
X79006387Y-56412338D01*
X79024425Y-56380248D01*
X79035087Y-56360833D01*
X79037893Y-56355071D01*
X79029123Y-56355583D01*
X79005231Y-56358292D01*
X78967854Y-56362968D01*
X78918629Y-56369382D01*
X78859191Y-56377304D01*
X78791179Y-56386503D01*
X78716228Y-56396751D01*
X78635975Y-56407818D01*
X78552058Y-56419473D01*
X78466111Y-56431486D01*
X78379774Y-56443629D01*
X78294680Y-56455671D01*
X78212469Y-56467383D01*
X78134776Y-56478534D01*
X78063237Y-56488894D01*
X77999491Y-56498235D01*
X77945172Y-56506326D01*
X77901919Y-56512937D01*
X77871367Y-56517839D01*
X77855154Y-56520801D01*
X77852964Y-56521447D01*
X77770733Y-56521447D01*
X77770733Y-56479657D01*
X77789783Y-56467973D01*
X77809680Y-56456060D01*
X77830949Y-56443565D01*
X77948534Y-56443565D01*
X77951753Y-56445419D01*
X77961234Y-56443857D01*
X77972375Y-56442017D01*
X77998837Y-56438066D01*
X78039168Y-56432210D01*
X78091915Y-56424655D01*
X78155626Y-56415607D01*
X78228846Y-56405273D01*
X78310124Y-56393857D01*
X78398008Y-56381567D01*
X78491043Y-56368608D01*
X78522127Y-56364290D01*
X78588577Y-56355064D01*
X79162114Y-56355064D01*
X79165874Y-56362602D01*
X79177537Y-56383734D01*
X79196500Y-56417411D01*
X79222163Y-56462582D01*
X79253924Y-56518200D01*
X79291182Y-56583213D01*
X79333336Y-56656574D01*
X79379784Y-56737231D01*
X79429925Y-56824137D01*
X79483158Y-56916242D01*
X79533561Y-57003313D01*
X79907594Y-57648976D01*
X80130643Y-57088141D01*
X80167309Y-56995638D01*
X80201914Y-56907733D01*
X80233975Y-56825689D01*
X80263011Y-56750769D01*
X80288539Y-56684235D01*
X80310077Y-56627349D01*
X80327144Y-56581375D01*
X80339256Y-56547575D01*
X80345932Y-56527212D01*
X80347029Y-56521439D01*
X80337920Y-56519442D01*
X80313723Y-56515400D01*
X80276076Y-56509543D01*
X80226616Y-56502101D01*
X80166979Y-56493305D01*
X80098802Y-56483382D01*
X80023721Y-56472565D01*
X79943374Y-56461082D01*
X79859397Y-56449163D01*
X79773426Y-56437038D01*
X79687098Y-56424936D01*
X79602050Y-56413089D01*
X79519919Y-56401724D01*
X79442341Y-56391073D01*
X79370953Y-56381365D01*
X79307391Y-56372829D01*
X79253293Y-56365697D01*
X79210294Y-56360196D01*
X79180032Y-56356558D01*
X79164144Y-56355012D01*
X79162114Y-56355064D01*
X78588577Y-56355064D01*
X79066087Y-56288767D01*
X79066110Y-56045350D01*
X79133891Y-56045350D01*
X79133916Y-56288767D01*
X79682108Y-56366044D01*
X79794091Y-56381830D01*
X79890466Y-56395409D01*
X79972390Y-56406937D01*
X80041024Y-56416570D01*
X80097527Y-56424462D01*
X80143057Y-56430770D01*
X80178773Y-56435648D01*
X80205835Y-56439253D01*
X80225401Y-56441740D01*
X80238631Y-56443263D01*
X80246683Y-56443980D01*
X80250717Y-56444044D01*
X80251892Y-56443612D01*
X80251367Y-56442839D01*
X80250761Y-56442315D01*
X80242537Y-56437252D01*
X80221086Y-56424607D01*
X80187790Y-56405175D01*
X80144033Y-56379752D01*
X80091196Y-56349134D01*
X80030661Y-56314116D01*
X79963811Y-56275495D01*
X79892028Y-56234067D01*
X79816693Y-56190626D01*
X79739190Y-56145969D01*
X79660899Y-56100892D01*
X79583205Y-56056190D01*
X79507488Y-56012659D01*
X79435131Y-55971094D01*
X79367516Y-55932293D01*
X79306025Y-55897050D01*
X79252041Y-55866161D01*
X79206946Y-55840423D01*
X79172121Y-55820630D01*
X79148949Y-55807578D01*
X79138813Y-55802064D01*
X79138482Y-55801933D01*
X79137303Y-55810048D01*
X79136236Y-55832981D01*
X79135323Y-55868620D01*
X79134602Y-55914850D01*
X79134114Y-55969556D01*
X79133898Y-56030626D01*
X79133891Y-56045350D01*
X79066110Y-56045350D01*
X79065962Y-55983116D01*
X79065533Y-55926758D01*
X79064862Y-55878391D01*
X79063989Y-55840130D01*
X79062954Y-55814087D01*
X79061798Y-55802377D01*
X79061519Y-55801933D01*
X79053691Y-55806044D01*
X79032593Y-55817845D01*
X78999607Y-55836539D01*
X78956116Y-55861330D01*
X78903501Y-55891419D01*
X78843145Y-55926011D01*
X78776431Y-55964309D01*
X78704741Y-56005515D01*
X78629458Y-56048832D01*
X78551963Y-56093464D01*
X78473639Y-56138614D01*
X78395870Y-56183484D01*
X78320036Y-56227277D01*
X78247521Y-56269198D01*
X78179706Y-56308448D01*
X78117976Y-56344231D01*
X78063710Y-56375750D01*
X78018293Y-56402208D01*
X77983107Y-56422807D01*
X77959533Y-56436752D01*
X77948955Y-56443245D01*
X77948534Y-56443565D01*
X77830949Y-56443565D01*
X77841853Y-56437160D01*
X77885027Y-56412006D01*
X77937927Y-56381328D01*
X77999279Y-56345856D01*
X78067806Y-56306321D01*
X78142235Y-56263453D01*
X78221290Y-56217983D01*
X78303695Y-56170642D01*
X78388176Y-56122161D01*
X78473457Y-56073269D01*
X78558264Y-56024698D01*
X78641322Y-55977178D01*
X78721354Y-55931439D01*
X78797087Y-55888213D01*
X78867246Y-55848229D01*
X78930554Y-55812220D01*
X78985737Y-55780914D01*
X79031520Y-55755042D01*
X79066628Y-55735336D01*
X79089785Y-55722526D01*
X79099718Y-55717343D01*
X79099975Y-55717267D01*
X79108035Y-55721373D01*
G37*
X79108035Y-55721373D02*
X79129492Y-55733203D01*
X79163070Y-55752027D01*
X79207496Y-55777114D01*
X79261493Y-55807735D01*
X79323788Y-55843158D01*
X79393104Y-55882653D01*
X79468168Y-55925489D01*
X79547705Y-55970937D01*
X79630439Y-56018266D01*
X79715096Y-56066744D01*
X79800400Y-56115643D01*
X79885078Y-56164231D01*
X79967853Y-56211777D01*
X80047452Y-56257552D01*
X80122599Y-56300824D01*
X80192019Y-56340864D01*
X80254438Y-56376941D01*
X80308580Y-56408325D01*
X80353172Y-56434284D01*
X80386937Y-56454089D01*
X80408601Y-56467009D01*
X80410217Y-56467995D01*
X80429267Y-56479657D01*
X80429137Y-57239345D01*
X80429050Y-57351406D01*
X80428835Y-57458684D01*
X80428501Y-57559965D01*
X80428059Y-57654031D01*
X80427519Y-57739666D01*
X80426891Y-57815654D01*
X80426185Y-57880779D01*
X80425410Y-57933825D01*
X80424578Y-57973575D01*
X80423697Y-57998813D01*
X80422787Y-58008312D01*
X80414538Y-58014057D01*
X80392892Y-58027441D01*
X80359121Y-58047730D01*
X80314500Y-58074190D01*
X80260299Y-58106086D01*
X80197791Y-58142684D01*
X80128249Y-58183252D01*
X80052945Y-58227053D01*
X79973152Y-58273355D01*
X79890142Y-58321423D01*
X79805188Y-58370523D01*
X79719562Y-58419922D01*
X79634536Y-58468884D01*
X79551383Y-58516676D01*
X79471376Y-58562565D01*
X79395786Y-58605815D01*
X79325887Y-58645692D01*
X79262951Y-58681464D01*
X79208250Y-58712394D01*
X79163057Y-58737751D01*
X79128644Y-58756799D01*
X79106284Y-58768804D01*
X79097249Y-58773032D01*
X79097205Y-58773032D01*
X79088574Y-58768775D01*
X79066354Y-58756617D01*
X79031600Y-58737160D01*
X78985366Y-58711007D01*
X78928709Y-58678760D01*
X78862681Y-58641024D01*
X78788337Y-58598399D01*
X78706733Y-58551490D01*
X78618922Y-58500898D01*
X78525959Y-58447226D01*
X78429017Y-58391146D01*
X77770734Y-58009961D01*
X77770734Y-57993336D01*
X77869005Y-57993336D01*
X77875697Y-57998102D01*
X77895668Y-58010550D01*
X77927546Y-58029875D01*
X77969956Y-58055275D01*
X78021523Y-58085945D01*
X78080875Y-58121083D01*
X78146636Y-58159884D01*
X78217433Y-58201546D01*
X78291892Y-58245264D01*
X78368638Y-58290235D01*
X78446298Y-58335656D01*
X78523497Y-58380723D01*
X78598862Y-58424633D01*
X78671018Y-58466581D01*
X78738591Y-58505765D01*
X78800208Y-58541381D01*
X78854494Y-58572626D01*
X78900074Y-58598695D01*
X78935576Y-58618786D01*
X78959625Y-58632095D01*
X78970846Y-58637818D01*
X78971383Y-58637979D01*
X78970232Y-58632476D01*
X78967608Y-58627683D01*
X78961536Y-58619606D01*
X78946050Y-58599610D01*
X78922226Y-58569066D01*
X78891146Y-58529345D01*
X78853888Y-58481818D01*
X78811531Y-58427856D01*
X78765154Y-58368828D01*
X78715837Y-58306107D01*
X78664659Y-58241061D01*
X78612700Y-58175063D01*
X78561037Y-58109482D01*
X78510752Y-58045690D01*
X78462922Y-57985057D01*
X78418627Y-57928954D01*
X78378947Y-57878750D01*
X78344960Y-57835818D01*
X78317745Y-57801528D01*
X78298383Y-57777250D01*
X78287952Y-57764355D01*
X78286609Y-57762783D01*
X78278166Y-57765195D01*
X78257359Y-57774817D01*
X78226484Y-57790382D01*
X78187835Y-57810621D01*
X78143710Y-57834269D01*
X78096402Y-57860057D01*
X78048206Y-57886719D01*
X78001420Y-57912987D01*
X77958336Y-57937594D01*
X77921252Y-57959273D01*
X77892462Y-57976758D01*
X77874261Y-57988779D01*
X77869005Y-57993336D01*
X77770734Y-57993336D01*
X77770734Y-57944343D01*
X77830000Y-57944343D01*
X77874450Y-57918767D01*
X77895034Y-57906959D01*
X77927445Y-57888411D01*
X77968796Y-57864772D01*
X78016206Y-57837689D01*
X78066790Y-57808812D01*
X78084684Y-57798601D01*
X78163730Y-57753500D01*
X78354562Y-57753500D01*
X78723779Y-58221283D01*
X78785116Y-58298871D01*
X78843462Y-58372438D01*
X78897961Y-58440919D01*
X78947760Y-58503253D01*
X78992003Y-58558375D01*
X79029835Y-58605224D01*
X79060401Y-58642735D01*
X79082846Y-58669846D01*
X79096315Y-58685493D01*
X79100000Y-58689067D01*
X79106276Y-58682587D01*
X79122160Y-58663858D01*
X79145629Y-58635361D01*
X79227290Y-58635361D01*
X79228302Y-58635798D01*
X79232153Y-58634430D01*
X79239778Y-58630729D01*
X79252109Y-58624171D01*
X79270081Y-58614230D01*
X79294629Y-58600380D01*
X79326685Y-58582096D01*
X79367186Y-58558851D01*
X79417064Y-58530121D01*
X79477254Y-58495379D01*
X79548689Y-58454100D01*
X79632305Y-58405757D01*
X79729035Y-58349826D01*
X79800787Y-58308342D01*
X79887763Y-58257946D01*
X79970235Y-58209941D01*
X80047062Y-58165004D01*
X80117102Y-58123814D01*
X80179214Y-58087048D01*
X80232258Y-58055385D01*
X80275090Y-58029501D01*
X80306572Y-58010077D01*
X80325560Y-57997788D01*
X80331016Y-57993369D01*
X80321827Y-57986034D01*
X80300400Y-57972329D01*
X80269028Y-57953522D01*
X80230009Y-57930879D01*
X80185638Y-57905667D01*
X80138211Y-57879155D01*
X80090022Y-57852609D01*
X80043368Y-57827296D01*
X80000544Y-57804484D01*
X79963847Y-57785439D01*
X79935571Y-57771430D01*
X79918012Y-57763724D01*
X79913299Y-57762783D01*
X79906274Y-57771318D01*
X79889929Y-57791737D01*
X79865345Y-57822667D01*
X79833601Y-57862736D01*
X79795779Y-57910571D01*
X79752957Y-57964800D01*
X79706217Y-58024050D01*
X79656639Y-58086948D01*
X79605303Y-58152123D01*
X79553290Y-58218200D01*
X79501679Y-58283809D01*
X79451551Y-58347576D01*
X79403986Y-58408129D01*
X79360065Y-58464096D01*
X79320868Y-58514103D01*
X79287474Y-58556779D01*
X79260965Y-58590750D01*
X79242421Y-58614644D01*
X79232922Y-58627089D01*
X79231943Y-58628471D01*
X79230044Y-58631172D01*
X79228182Y-58633644D01*
X79227290Y-58635361D01*
X79145629Y-58635361D01*
X79146799Y-58633941D01*
X79179336Y-58593900D01*
X79218917Y-58544798D01*
X79264686Y-58487699D01*
X79315789Y-58423665D01*
X79371371Y-58353759D01*
X79430577Y-58279045D01*
X79476221Y-58221283D01*
X79845439Y-57753500D01*
X79472719Y-57751295D01*
X79374629Y-57750839D01*
X79264588Y-57750540D01*
X79147576Y-57750399D01*
X79028574Y-57750414D01*
X78912563Y-57750588D01*
X78804525Y-57750918D01*
X78727281Y-57751295D01*
X78354562Y-57753500D01*
X78163730Y-57753500D01*
X78250469Y-57704010D01*
X78249732Y-57702139D01*
X79960067Y-57702139D01*
X79961147Y-57707570D01*
X79963659Y-57710864D01*
X79966697Y-57712875D01*
X79978754Y-57719766D01*
X80003297Y-57733872D01*
X80038150Y-57753940D01*
X80081136Y-57778716D01*
X80130078Y-57806945D01*
X80175267Y-57833025D01*
X80226521Y-57862587D01*
X80272719Y-57889182D01*
X80311908Y-57911690D01*
X80342134Y-57928989D01*
X80361442Y-57939960D01*
X80367884Y-57943500D01*
X80368215Y-57935331D01*
X80368519Y-57911525D01*
X80368792Y-57873379D01*
X80369031Y-57822191D01*
X80369232Y-57759256D01*
X80369393Y-57685872D01*
X80369509Y-57603335D01*
X80369578Y-57512942D01*
X80369595Y-57415990D01*
X80369558Y-57313775D01*
X80369548Y-57298417D01*
X80369096Y-56652833D01*
X80158862Y-57177767D01*
X80117379Y-57281381D01*
X80081798Y-57370411D01*
X80051711Y-57445990D01*
X80026713Y-57509248D01*
X80006397Y-57561318D01*
X79990356Y-57603331D01*
X79978185Y-57636418D01*
X79969477Y-57661710D01*
X79963825Y-57680341D01*
X79960824Y-57693439D01*
X79960067Y-57702139D01*
X78249732Y-57702139D01*
X78244950Y-57690000D01*
X78337020Y-57690000D01*
X79862981Y-57690000D01*
X79834974Y-57640834D01*
X79809673Y-57596573D01*
X79778776Y-57542778D01*
X79743014Y-57480707D01*
X79703120Y-57411618D01*
X79659826Y-57336769D01*
X79613864Y-57257418D01*
X79565967Y-57174824D01*
X79516866Y-57090244D01*
X79467294Y-57004937D01*
X79417984Y-56920161D01*
X79369666Y-56837173D01*
X79323074Y-56757233D01*
X79278940Y-56681597D01*
X79237996Y-56611525D01*
X79200975Y-56548273D01*
X79168607Y-56493102D01*
X79141627Y-56447268D01*
X79120765Y-56412029D01*
X79106755Y-56388644D01*
X79100327Y-56378371D01*
X79100000Y-56377996D01*
X79095398Y-56385114D01*
X79083046Y-56405630D01*
X79063677Y-56438285D01*
X79038023Y-56481822D01*
X79006815Y-56534983D01*
X78970786Y-56596509D01*
X78930669Y-56665142D01*
X78887196Y-56739624D01*
X78841098Y-56818697D01*
X78793109Y-56901102D01*
X78743959Y-56985583D01*
X78694383Y-57070880D01*
X78645111Y-57155735D01*
X78596876Y-57238891D01*
X78550410Y-57319089D01*
X78506445Y-57395072D01*
X78465714Y-57465580D01*
X78428949Y-57529356D01*
X78396882Y-57585142D01*
X78370246Y-57631679D01*
X78365027Y-57640834D01*
X78337020Y-57690000D01*
X78244950Y-57690000D01*
X78188501Y-57546722D01*
X78172002Y-57505004D01*
X78150198Y-57450121D01*
X78124108Y-57384620D01*
X78094745Y-57311044D01*
X78063128Y-57231940D01*
X78030271Y-57149852D01*
X77997191Y-57067325D01*
X77978654Y-57021133D01*
X77830774Y-56652833D01*
X77830000Y-57944343D01*
X77770734Y-57944343D01*
X77770733Y-57244809D01*
X77770733Y-56521447D01*
X77852964Y-56521447D01*
X77854912Y-56530084D01*
X77862682Y-56553172D01*
X77875793Y-56589448D01*
X77893761Y-56637647D01*
X77916103Y-56696505D01*
X77942338Y-56764758D01*
X77971983Y-56841142D01*
X78004555Y-56924392D01*
X78039572Y-57013244D01*
X78068771Y-57086880D01*
X78105487Y-57179077D01*
X78140397Y-57266452D01*
X78172997Y-57347764D01*
X78202786Y-57421773D01*
X78229260Y-57487237D01*
X78251916Y-57542916D01*
X78270250Y-57587568D01*
X78283761Y-57619952D01*
X78291946Y-57638829D01*
X78294321Y-57643369D01*
X78298927Y-57635750D01*
X78311403Y-57614533D01*
X78331136Y-57580771D01*
X78357512Y-57535520D01*
X78389918Y-57479836D01*
X78427740Y-57414773D01*
X78470365Y-57341388D01*
X78517179Y-57260734D01*
X78567568Y-57173869D01*
X78620920Y-57081846D01*
X78668939Y-56998980D01*
X78724267Y-56903402D01*
X78777045Y-56812074D01*
X78826670Y-56726050D01*
X78872539Y-56646383D01*
X78914049Y-56574125D01*
X78950596Y-56510329D01*
X78981576Y-56456049D01*
X79006387Y-56412338D01*
X79024425Y-56380248D01*
X79035087Y-56360833D01*
X79037893Y-56355071D01*
X79029123Y-56355583D01*
X79005231Y-56358292D01*
X78967854Y-56362968D01*
X78918629Y-56369382D01*
X78859191Y-56377304D01*
X78791179Y-56386503D01*
X78716228Y-56396751D01*
X78635975Y-56407818D01*
X78552058Y-56419473D01*
X78466111Y-56431486D01*
X78379774Y-56443629D01*
X78294680Y-56455671D01*
X78212469Y-56467383D01*
X78134776Y-56478534D01*
X78063237Y-56488894D01*
X77999491Y-56498235D01*
X77945172Y-56506326D01*
X77901919Y-56512937D01*
X77871367Y-56517839D01*
X77855154Y-56520801D01*
X77852964Y-56521447D01*
X77770733Y-56521447D01*
X77770733Y-56479657D01*
X77789783Y-56467973D01*
X77809680Y-56456060D01*
X77830949Y-56443565D01*
X77948534Y-56443565D01*
X77951753Y-56445419D01*
X77961234Y-56443857D01*
X77972375Y-56442017D01*
X77998837Y-56438066D01*
X78039168Y-56432210D01*
X78091915Y-56424655D01*
X78155626Y-56415607D01*
X78228846Y-56405273D01*
X78310124Y-56393857D01*
X78398008Y-56381567D01*
X78491043Y-56368608D01*
X78522127Y-56364290D01*
X78588577Y-56355064D01*
X79162114Y-56355064D01*
X79165874Y-56362602D01*
X79177537Y-56383734D01*
X79196500Y-56417411D01*
X79222163Y-56462582D01*
X79253924Y-56518200D01*
X79291182Y-56583213D01*
X79333336Y-56656574D01*
X79379784Y-56737231D01*
X79429925Y-56824137D01*
X79483158Y-56916242D01*
X79533561Y-57003313D01*
X79907594Y-57648976D01*
X80130643Y-57088141D01*
X80167309Y-56995638D01*
X80201914Y-56907733D01*
X80233975Y-56825689D01*
X80263011Y-56750769D01*
X80288539Y-56684235D01*
X80310077Y-56627349D01*
X80327144Y-56581375D01*
X80339256Y-56547575D01*
X80345932Y-56527212D01*
X80347029Y-56521439D01*
X80337920Y-56519442D01*
X80313723Y-56515400D01*
X80276076Y-56509543D01*
X80226616Y-56502101D01*
X80166979Y-56493305D01*
X80098802Y-56483382D01*
X80023721Y-56472565D01*
X79943374Y-56461082D01*
X79859397Y-56449163D01*
X79773426Y-56437038D01*
X79687098Y-56424936D01*
X79602050Y-56413089D01*
X79519919Y-56401724D01*
X79442341Y-56391073D01*
X79370953Y-56381365D01*
X79307391Y-56372829D01*
X79253293Y-56365697D01*
X79210294Y-56360196D01*
X79180032Y-56356558D01*
X79164144Y-56355012D01*
X79162114Y-56355064D01*
X78588577Y-56355064D01*
X79066087Y-56288767D01*
X79066110Y-56045350D01*
X79133891Y-56045350D01*
X79133916Y-56288767D01*
X79682108Y-56366044D01*
X79794091Y-56381830D01*
X79890466Y-56395409D01*
X79972390Y-56406937D01*
X80041024Y-56416570D01*
X80097527Y-56424462D01*
X80143057Y-56430770D01*
X80178773Y-56435648D01*
X80205835Y-56439253D01*
X80225401Y-56441740D01*
X80238631Y-56443263D01*
X80246683Y-56443980D01*
X80250717Y-56444044D01*
X80251892Y-56443612D01*
X80251367Y-56442839D01*
X80250761Y-56442315D01*
X80242537Y-56437252D01*
X80221086Y-56424607D01*
X80187790Y-56405175D01*
X80144033Y-56379752D01*
X80091196Y-56349134D01*
X80030661Y-56314116D01*
X79963811Y-56275495D01*
X79892028Y-56234067D01*
X79816693Y-56190626D01*
X79739190Y-56145969D01*
X79660899Y-56100892D01*
X79583205Y-56056190D01*
X79507488Y-56012659D01*
X79435131Y-55971094D01*
X79367516Y-55932293D01*
X79306025Y-55897050D01*
X79252041Y-55866161D01*
X79206946Y-55840423D01*
X79172121Y-55820630D01*
X79148949Y-55807578D01*
X79138813Y-55802064D01*
X79138482Y-55801933D01*
X79137303Y-55810048D01*
X79136236Y-55832981D01*
X79135323Y-55868620D01*
X79134602Y-55914850D01*
X79134114Y-55969556D01*
X79133898Y-56030626D01*
X79133891Y-56045350D01*
X79066110Y-56045350D01*
X79065962Y-55983116D01*
X79065533Y-55926758D01*
X79064862Y-55878391D01*
X79063989Y-55840130D01*
X79062954Y-55814087D01*
X79061798Y-55802377D01*
X79061519Y-55801933D01*
X79053691Y-55806044D01*
X79032593Y-55817845D01*
X78999607Y-55836539D01*
X78956116Y-55861330D01*
X78903501Y-55891419D01*
X78843145Y-55926011D01*
X78776431Y-55964309D01*
X78704741Y-56005515D01*
X78629458Y-56048832D01*
X78551963Y-56093464D01*
X78473639Y-56138614D01*
X78395870Y-56183484D01*
X78320036Y-56227277D01*
X78247521Y-56269198D01*
X78179706Y-56308448D01*
X78117976Y-56344231D01*
X78063710Y-56375750D01*
X78018293Y-56402208D01*
X77983107Y-56422807D01*
X77959533Y-56436752D01*
X77948955Y-56443245D01*
X77948534Y-56443565D01*
X77830949Y-56443565D01*
X77841853Y-56437160D01*
X77885027Y-56412006D01*
X77937927Y-56381328D01*
X77999279Y-56345856D01*
X78067806Y-56306321D01*
X78142235Y-56263453D01*
X78221290Y-56217983D01*
X78303695Y-56170642D01*
X78388176Y-56122161D01*
X78473457Y-56073269D01*
X78558264Y-56024698D01*
X78641322Y-55977178D01*
X78721354Y-55931439D01*
X78797087Y-55888213D01*
X78867246Y-55848229D01*
X78930554Y-55812220D01*
X78985737Y-55780914D01*
X79031520Y-55755042D01*
X79066628Y-55735336D01*
X79089785Y-55722526D01*
X79099718Y-55717343D01*
X79099975Y-55717267D01*
X79108035Y-55721373D01*
G36*
X78398548Y-59567470D02*
G01*
X78415902Y-59572526D01*
X78438680Y-59582127D01*
X78468934Y-59597258D01*
X78508714Y-59618905D01*
X78560073Y-59648054D01*
X78583534Y-59661581D01*
X78632862Y-59690614D01*
X78678454Y-59718392D01*
X78717809Y-59743317D01*
X78748426Y-59763790D01*
X78767807Y-59778214D01*
X78771917Y-59782001D01*
X78795200Y-59806934D01*
X78795200Y-60237168D01*
X78773895Y-60262487D01*
X78754290Y-60281041D01*
X78726884Y-60301429D01*
X78708279Y-60313033D01*
X78685768Y-60325897D01*
X78652190Y-60345148D01*
X78611152Y-60368715D01*
X78566257Y-60394530D01*
X78537417Y-60411130D01*
X78484904Y-60440734D01*
X78444166Y-60461917D01*
X78412795Y-60475510D01*
X78388382Y-60482340D01*
X78368518Y-60483237D01*
X78350795Y-60479030D01*
X78345899Y-60477055D01*
X78334992Y-60471280D01*
X78311727Y-60458264D01*
X78278371Y-60439299D01*
X78237192Y-60415677D01*
X78190457Y-60388691D01*
X78165145Y-60374010D01*
X78102866Y-60337267D01*
X78054759Y-60307570D01*
X78019900Y-60284298D01*
X77997361Y-60266830D01*
X77986216Y-60254545D01*
X77985796Y-60253780D01*
X77981899Y-60242473D01*
X77978898Y-60224225D01*
X77976698Y-60197167D01*
X77975204Y-60159427D01*
X77974322Y-60109134D01*
X77973957Y-60044417D01*
X77973940Y-60025488D01*
X78084000Y-60025488D01*
X78084152Y-60082004D01*
X78084746Y-60123995D01*
X78085988Y-60153865D01*
X78088084Y-60174020D01*
X78091242Y-60186865D01*
X78095668Y-60194807D01*
X78098817Y-60198043D01*
X78110253Y-60205962D01*
X78133368Y-60220476D01*
X78165132Y-60239796D01*
X78202514Y-60262131D01*
X78242482Y-60285691D01*
X78282006Y-60308684D01*
X78318054Y-60329321D01*
X78347596Y-60345810D01*
X78362125Y-60353587D01*
X78370550Y-60357312D01*
X78379467Y-60358743D01*
X78390822Y-60357007D01*
X78406565Y-60351230D01*
X78428643Y-60340541D01*
X78459005Y-60324065D01*
X78499599Y-60300930D01*
X78552374Y-60270262D01*
X78566600Y-60261958D01*
X78672434Y-60200157D01*
X78672434Y-59847274D01*
X78534796Y-59767704D01*
X78490716Y-59742602D01*
X78451088Y-59720754D01*
X78418446Y-59703500D01*
X78395327Y-59692179D01*
X78384284Y-59688134D01*
X78372673Y-59692262D01*
X78349517Y-59703539D01*
X78317729Y-59720303D01*
X78280225Y-59740892D01*
X78239918Y-59763644D01*
X78199724Y-59786897D01*
X78162557Y-59808990D01*
X78131332Y-59828261D01*
X78108963Y-59843047D01*
X78099326Y-59850608D01*
X78093916Y-59857540D01*
X78089939Y-59867579D01*
X78087179Y-59883177D01*
X78085422Y-59906789D01*
X78084451Y-59940869D01*
X78084054Y-59987870D01*
X78084000Y-60025488D01*
X77973940Y-60025488D01*
X77973934Y-60018888D01*
X77973934Y-59806934D01*
X77997217Y-59781630D01*
X78011291Y-59770036D01*
X78037635Y-59751766D01*
X78073744Y-59728422D01*
X78117116Y-59701605D01*
X78165247Y-59672918D01*
X78185600Y-59661088D01*
X78241805Y-59628953D01*
X78285633Y-59604666D01*
X78319154Y-59587237D01*
X78344436Y-59575679D01*
X78363548Y-59569003D01*
X78378558Y-59566218D01*
X78384567Y-59565972D01*
X78398548Y-59567470D01*
G37*
X78398548Y-59567470D02*
X78415902Y-59572526D01*
X78438680Y-59582127D01*
X78468934Y-59597258D01*
X78508714Y-59618905D01*
X78560073Y-59648054D01*
X78583534Y-59661581D01*
X78632862Y-59690614D01*
X78678454Y-59718392D01*
X78717809Y-59743317D01*
X78748426Y-59763790D01*
X78767807Y-59778214D01*
X78771917Y-59782001D01*
X78795200Y-59806934D01*
X78795200Y-60237168D01*
X78773895Y-60262487D01*
X78754290Y-60281041D01*
X78726884Y-60301429D01*
X78708279Y-60313033D01*
X78685768Y-60325897D01*
X78652190Y-60345148D01*
X78611152Y-60368715D01*
X78566257Y-60394530D01*
X78537417Y-60411130D01*
X78484904Y-60440734D01*
X78444166Y-60461917D01*
X78412795Y-60475510D01*
X78388382Y-60482340D01*
X78368518Y-60483237D01*
X78350795Y-60479030D01*
X78345899Y-60477055D01*
X78334992Y-60471280D01*
X78311727Y-60458264D01*
X78278371Y-60439299D01*
X78237192Y-60415677D01*
X78190457Y-60388691D01*
X78165145Y-60374010D01*
X78102866Y-60337267D01*
X78054759Y-60307570D01*
X78019900Y-60284298D01*
X77997361Y-60266830D01*
X77986216Y-60254545D01*
X77985796Y-60253780D01*
X77981899Y-60242473D01*
X77978898Y-60224225D01*
X77976698Y-60197167D01*
X77975204Y-60159427D01*
X77974322Y-60109134D01*
X77973957Y-60044417D01*
X77973940Y-60025488D01*
X78084000Y-60025488D01*
X78084152Y-60082004D01*
X78084746Y-60123995D01*
X78085988Y-60153865D01*
X78088084Y-60174020D01*
X78091242Y-60186865D01*
X78095668Y-60194807D01*
X78098817Y-60198043D01*
X78110253Y-60205962D01*
X78133368Y-60220476D01*
X78165132Y-60239796D01*
X78202514Y-60262131D01*
X78242482Y-60285691D01*
X78282006Y-60308684D01*
X78318054Y-60329321D01*
X78347596Y-60345810D01*
X78362125Y-60353587D01*
X78370550Y-60357312D01*
X78379467Y-60358743D01*
X78390822Y-60357007D01*
X78406565Y-60351230D01*
X78428643Y-60340541D01*
X78459005Y-60324065D01*
X78499599Y-60300930D01*
X78552374Y-60270262D01*
X78566600Y-60261958D01*
X78672434Y-60200157D01*
X78672434Y-59847274D01*
X78534796Y-59767704D01*
X78490716Y-59742602D01*
X78451088Y-59720754D01*
X78418446Y-59703500D01*
X78395327Y-59692179D01*
X78384284Y-59688134D01*
X78372673Y-59692262D01*
X78349517Y-59703539D01*
X78317729Y-59720303D01*
X78280225Y-59740892D01*
X78239918Y-59763644D01*
X78199724Y-59786897D01*
X78162557Y-59808990D01*
X78131332Y-59828261D01*
X78108963Y-59843047D01*
X78099326Y-59850608D01*
X78093916Y-59857540D01*
X78089939Y-59867579D01*
X78087179Y-59883177D01*
X78085422Y-59906789D01*
X78084451Y-59940869D01*
X78084054Y-59987870D01*
X78084000Y-60025488D01*
X77973940Y-60025488D01*
X77973934Y-60018888D01*
X77973934Y-59806934D01*
X77997217Y-59781630D01*
X78011291Y-59770036D01*
X78037635Y-59751766D01*
X78073744Y-59728422D01*
X78117116Y-59701605D01*
X78165247Y-59672918D01*
X78185600Y-59661088D01*
X78241805Y-59628953D01*
X78285633Y-59604666D01*
X78319154Y-59587237D01*
X78344436Y-59575679D01*
X78363548Y-59569003D01*
X78378558Y-59566218D01*
X78384567Y-59565972D01*
X78398548Y-59567470D01*
G36*
X79034366Y-59561064D02*
G01*
X79036087Y-59585981D01*
X79037549Y-59627005D01*
X79038745Y-59683726D01*
X79039667Y-59755731D01*
X79040308Y-59842608D01*
X79040662Y-59943945D01*
X79040733Y-60022567D01*
X79040659Y-60127696D01*
X79040420Y-60216985D01*
X79039992Y-60291527D01*
X79039350Y-60352414D01*
X79038469Y-60400739D01*
X79037325Y-60437594D01*
X79035893Y-60464072D01*
X79034148Y-60481266D01*
X79032066Y-60490268D01*
X79030150Y-60492306D01*
X79017407Y-60487969D01*
X78996254Y-60477031D01*
X78981237Y-60468065D01*
X78957072Y-60449856D01*
X78938318Y-60430363D01*
X78932554Y-60421261D01*
X78929977Y-60407128D01*
X78927740Y-60378215D01*
X78925843Y-60336668D01*
X78924288Y-60284636D01*
X78923076Y-60224265D01*
X78922208Y-60157703D01*
X78921686Y-60087096D01*
X78921511Y-60014593D01*
X78921684Y-59942339D01*
X78922206Y-59872484D01*
X78923078Y-59807173D01*
X78924303Y-59748554D01*
X78925880Y-59698775D01*
X78927811Y-59659981D01*
X78930098Y-59634322D01*
X78932096Y-59624879D01*
X78943763Y-59610106D01*
X78964605Y-59591805D01*
X78989477Y-59573681D01*
X79013233Y-59559439D01*
X79030727Y-59552782D01*
X79032394Y-59552667D01*
X79034366Y-59561064D01*
G37*
X79034366Y-59561064D02*
X79036087Y-59585981D01*
X79037549Y-59627005D01*
X79038745Y-59683726D01*
X79039667Y-59755731D01*
X79040308Y-59842608D01*
X79040662Y-59943945D01*
X79040733Y-60022567D01*
X79040659Y-60127696D01*
X79040420Y-60216985D01*
X79039992Y-60291527D01*
X79039350Y-60352414D01*
X79038469Y-60400739D01*
X79037325Y-60437594D01*
X79035893Y-60464072D01*
X79034148Y-60481266D01*
X79032066Y-60490268D01*
X79030150Y-60492306D01*
X79017407Y-60487969D01*
X78996254Y-60477031D01*
X78981237Y-60468065D01*
X78957072Y-60449856D01*
X78938318Y-60430363D01*
X78932554Y-60421261D01*
X78929977Y-60407128D01*
X78927740Y-60378215D01*
X78925843Y-60336668D01*
X78924288Y-60284636D01*
X78923076Y-60224265D01*
X78922208Y-60157703D01*
X78921686Y-60087096D01*
X78921511Y-60014593D01*
X78921684Y-59942339D01*
X78922206Y-59872484D01*
X78923078Y-59807173D01*
X78924303Y-59748554D01*
X78925880Y-59698775D01*
X78927811Y-59659981D01*
X78930098Y-59634322D01*
X78932096Y-59624879D01*
X78943763Y-59610106D01*
X78964605Y-59591805D01*
X78989477Y-59573681D01*
X79013233Y-59559439D01*
X79030727Y-59552782D01*
X79032394Y-59552667D01*
X79034366Y-59561064D01*
G36*
X80780674Y-59570534D02*
G01*
X80803319Y-59578920D01*
X80834990Y-59593819D01*
X80877250Y-59615988D01*
X80931662Y-59646180D01*
X80955596Y-59659770D01*
X81004422Y-59687993D01*
X81049559Y-59714770D01*
X81088447Y-59738529D01*
X81118527Y-59757697D01*
X81137237Y-59770700D01*
X81140504Y-59773392D01*
X81151678Y-59784750D01*
X81160745Y-59797608D01*
X81167899Y-59813735D01*
X81173336Y-59834900D01*
X81177253Y-59862870D01*
X81179844Y-59899415D01*
X81181305Y-59946303D01*
X81181832Y-60005301D01*
X81181620Y-60078180D01*
X81181116Y-60140619D01*
X81180444Y-60218163D01*
X81179745Y-60280670D01*
X81178598Y-60330031D01*
X81176584Y-60368137D01*
X81173282Y-60396880D01*
X81168273Y-60418150D01*
X81161137Y-60433840D01*
X81151454Y-60445840D01*
X81138805Y-60456041D01*
X81122768Y-60466336D01*
X81106600Y-60476297D01*
X81068500Y-60500175D01*
X81060034Y-59853733D01*
X80916299Y-59770933D01*
X80871555Y-59745423D01*
X80831599Y-59723145D01*
X80798817Y-59705389D01*
X80775598Y-59693445D01*
X80764329Y-59688604D01*
X80763899Y-59688561D01*
X80754201Y-59692812D01*
X80732366Y-59704392D01*
X80700804Y-59721957D01*
X80661923Y-59744167D01*
X80618134Y-59769679D01*
X80615534Y-59771209D01*
X80475834Y-59853429D01*
X80471600Y-60177352D01*
X80467367Y-60501274D01*
X80419705Y-60471457D01*
X80390943Y-60450638D01*
X80369870Y-60429904D01*
X80362275Y-60418057D01*
X80359600Y-60405427D01*
X80357494Y-60381260D01*
X80355938Y-60344666D01*
X80354915Y-60294754D01*
X80354407Y-60230636D01*
X80354396Y-60151419D01*
X80354864Y-60056216D01*
X80354904Y-60050445D01*
X80357300Y-59706415D01*
X80378467Y-59683750D01*
X80395482Y-59668942D01*
X80418613Y-59652747D01*
X80442313Y-59638622D01*
X80461034Y-59630020D01*
X80466607Y-59628867D01*
X80469327Y-59636514D01*
X80471931Y-59656202D01*
X80473294Y-59674417D01*
X80475834Y-59719967D01*
X80606121Y-59643937D01*
X80659719Y-59613296D01*
X80701015Y-59591232D01*
X80731774Y-59576904D01*
X80753763Y-59569468D01*
X80765492Y-59567907D01*
X80780674Y-59570534D01*
G37*
X80780674Y-59570534D02*
X80803319Y-59578920D01*
X80834990Y-59593819D01*
X80877250Y-59615988D01*
X80931662Y-59646180D01*
X80955596Y-59659770D01*
X81004422Y-59687993D01*
X81049559Y-59714770D01*
X81088447Y-59738529D01*
X81118527Y-59757697D01*
X81137237Y-59770700D01*
X81140504Y-59773392D01*
X81151678Y-59784750D01*
X81160745Y-59797608D01*
X81167899Y-59813735D01*
X81173336Y-59834900D01*
X81177253Y-59862870D01*
X81179844Y-59899415D01*
X81181305Y-59946303D01*
X81181832Y-60005301D01*
X81181620Y-60078180D01*
X81181116Y-60140619D01*
X81180444Y-60218163D01*
X81179745Y-60280670D01*
X81178598Y-60330031D01*
X81176584Y-60368137D01*
X81173282Y-60396880D01*
X81168273Y-60418150D01*
X81161137Y-60433840D01*
X81151454Y-60445840D01*
X81138805Y-60456041D01*
X81122768Y-60466336D01*
X81106600Y-60476297D01*
X81068500Y-60500175D01*
X81060034Y-59853733D01*
X80916299Y-59770933D01*
X80871555Y-59745423D01*
X80831599Y-59723145D01*
X80798817Y-59705389D01*
X80775598Y-59693445D01*
X80764329Y-59688604D01*
X80763899Y-59688561D01*
X80754201Y-59692812D01*
X80732366Y-59704392D01*
X80700804Y-59721957D01*
X80661923Y-59744167D01*
X80618134Y-59769679D01*
X80615534Y-59771209D01*
X80475834Y-59853429D01*
X80471600Y-60177352D01*
X80467367Y-60501274D01*
X80419705Y-60471457D01*
X80390943Y-60450638D01*
X80369870Y-60429904D01*
X80362275Y-60418057D01*
X80359600Y-60405427D01*
X80357494Y-60381260D01*
X80355938Y-60344666D01*
X80354915Y-60294754D01*
X80354407Y-60230636D01*
X80354396Y-60151419D01*
X80354864Y-60056216D01*
X80354904Y-60050445D01*
X80357300Y-59706415D01*
X80378467Y-59683750D01*
X80395482Y-59668942D01*
X80418613Y-59652747D01*
X80442313Y-59638622D01*
X80461034Y-59630020D01*
X80466607Y-59628867D01*
X80469327Y-59636514D01*
X80471931Y-59656202D01*
X80473294Y-59674417D01*
X80475834Y-59719967D01*
X80606121Y-59643937D01*
X80659719Y-59613296D01*
X80701015Y-59591232D01*
X80731774Y-59576904D01*
X80753763Y-59569468D01*
X80765492Y-59567907D01*
X80780674Y-59570534D01*
G36*
X79831808Y-59565538D02*
G01*
X79860698Y-59578262D01*
X79900955Y-59598570D01*
X79951108Y-59625727D01*
X79996756Y-59651540D01*
X80057804Y-59686674D01*
X80105818Y-59714530D01*
X80142480Y-59736211D01*
X80169467Y-59752821D01*
X80188461Y-59765466D01*
X80201139Y-59775248D01*
X80209183Y-59783274D01*
X80214271Y-59790647D01*
X80217190Y-59796482D01*
X80220363Y-59811772D01*
X80223014Y-59840657D01*
X80224946Y-59879804D01*
X80225961Y-59925876D01*
X80226067Y-59946765D01*
X80226067Y-60077600D01*
X80018634Y-60077600D01*
X79950912Y-60077407D01*
X79898560Y-60076775D01*
X79860018Y-60075625D01*
X79833725Y-60073876D01*
X79818121Y-60071450D01*
X79811646Y-60068266D01*
X79811247Y-60067017D01*
X79813426Y-60052357D01*
X79818739Y-60029746D01*
X79820043Y-60024933D01*
X79826978Y-60004500D01*
X79836432Y-59989557D01*
X79850925Y-59979257D01*
X79872978Y-59972754D01*
X79905112Y-59969201D01*
X79949847Y-59967751D01*
X79990884Y-59967534D01*
X80116000Y-59967534D01*
X80116000Y-59916734D01*
X80114247Y-59882910D01*
X80108304Y-59861289D01*
X80100674Y-59850608D01*
X80087637Y-59840683D01*
X80063378Y-59824925D01*
X80030811Y-59804996D01*
X79992851Y-59782557D01*
X79952413Y-59759271D01*
X79912412Y-59736799D01*
X79875761Y-59716804D01*
X79845375Y-59700946D01*
X79824170Y-59690888D01*
X79815717Y-59688134D01*
X79804596Y-59692215D01*
X79781429Y-59703564D01*
X79748751Y-59720842D01*
X79709097Y-59742707D01*
X79665204Y-59767704D01*
X79527567Y-59847274D01*
X79527567Y-60199901D01*
X79651635Y-60272100D01*
X79694125Y-60297159D01*
X79732524Y-60320424D01*
X79763960Y-60340107D01*
X79785565Y-60354423D01*
X79793286Y-60360279D01*
X79810854Y-60387516D01*
X79818632Y-60428112D01*
X79818131Y-60464869D01*
X79815433Y-60500389D01*
X79621890Y-60388028D01*
X79556990Y-60349792D01*
X79503270Y-60316973D01*
X79461632Y-60290154D01*
X79432976Y-60269920D01*
X79418200Y-60256855D01*
X79416873Y-60254950D01*
X79413080Y-60243928D01*
X79410138Y-60225041D01*
X79407959Y-60196547D01*
X79406457Y-60156701D01*
X79405543Y-60103760D01*
X79405130Y-60035980D01*
X79405100Y-60020584D01*
X79404800Y-59806934D01*
X79428083Y-59781975D01*
X79443715Y-59768965D01*
X79470943Y-59750161D01*
X79507204Y-59727023D01*
X79549931Y-59701012D01*
X79596563Y-59673589D01*
X79644533Y-59646214D01*
X79691278Y-59620348D01*
X79734233Y-59597453D01*
X79770834Y-59578989D01*
X79798516Y-59566416D01*
X79814716Y-59561196D01*
X79815756Y-59561134D01*
X79831808Y-59565538D01*
G37*
X79831808Y-59565538D02*
X79860698Y-59578262D01*
X79900955Y-59598570D01*
X79951108Y-59625727D01*
X79996756Y-59651540D01*
X80057804Y-59686674D01*
X80105818Y-59714530D01*
X80142480Y-59736211D01*
X80169467Y-59752821D01*
X80188461Y-59765466D01*
X80201139Y-59775248D01*
X80209183Y-59783274D01*
X80214271Y-59790647D01*
X80217190Y-59796482D01*
X80220363Y-59811772D01*
X80223014Y-59840657D01*
X80224946Y-59879804D01*
X80225961Y-59925876D01*
X80226067Y-59946765D01*
X80226067Y-60077600D01*
X80018634Y-60077600D01*
X79950912Y-60077407D01*
X79898560Y-60076775D01*
X79860018Y-60075625D01*
X79833725Y-60073876D01*
X79818121Y-60071450D01*
X79811646Y-60068266D01*
X79811247Y-60067017D01*
X79813426Y-60052357D01*
X79818739Y-60029746D01*
X79820043Y-60024933D01*
X79826978Y-60004500D01*
X79836432Y-59989557D01*
X79850925Y-59979257D01*
X79872978Y-59972754D01*
X79905112Y-59969201D01*
X79949847Y-59967751D01*
X79990884Y-59967534D01*
X80116000Y-59967534D01*
X80116000Y-59916734D01*
X80114247Y-59882910D01*
X80108304Y-59861289D01*
X80100674Y-59850608D01*
X80087637Y-59840683D01*
X80063378Y-59824925D01*
X80030811Y-59804996D01*
X79992851Y-59782557D01*
X79952413Y-59759271D01*
X79912412Y-59736799D01*
X79875761Y-59716804D01*
X79845375Y-59700946D01*
X79824170Y-59690888D01*
X79815717Y-59688134D01*
X79804596Y-59692215D01*
X79781429Y-59703564D01*
X79748751Y-59720842D01*
X79709097Y-59742707D01*
X79665204Y-59767704D01*
X79527567Y-59847274D01*
X79527567Y-60199901D01*
X79651635Y-60272100D01*
X79694125Y-60297159D01*
X79732524Y-60320424D01*
X79763960Y-60340107D01*
X79785565Y-60354423D01*
X79793286Y-60360279D01*
X79810854Y-60387516D01*
X79818632Y-60428112D01*
X79818131Y-60464869D01*
X79815433Y-60500389D01*
X79621890Y-60388028D01*
X79556990Y-60349792D01*
X79503270Y-60316973D01*
X79461632Y-60290154D01*
X79432976Y-60269920D01*
X79418200Y-60256855D01*
X79416873Y-60254950D01*
X79413080Y-60243928D01*
X79410138Y-60225041D01*
X79407959Y-60196547D01*
X79406457Y-60156701D01*
X79405543Y-60103760D01*
X79405130Y-60035980D01*
X79405100Y-60020584D01*
X79404800Y-59806934D01*
X79428083Y-59781975D01*
X79443715Y-59768965D01*
X79470943Y-59750161D01*
X79507204Y-59727023D01*
X79549931Y-59701012D01*
X79596563Y-59673589D01*
X79644533Y-59646214D01*
X79691278Y-59620348D01*
X79734233Y-59597453D01*
X79770834Y-59578989D01*
X79798516Y-59566416D01*
X79814716Y-59561196D01*
X79815756Y-59561134D01*
X79831808Y-59565538D01*
G36*
X79274498Y-59563277D02*
G01*
X79275120Y-59587680D01*
X79275616Y-59625940D01*
X79275981Y-59676518D01*
X79276208Y-59737878D01*
X79276289Y-59808481D01*
X79276220Y-59886788D01*
X79275993Y-59971263D01*
X79275755Y-60029311D01*
X79273567Y-60500168D01*
X79235467Y-60476294D01*
X79218747Y-60466180D01*
X79204829Y-60457615D01*
X79193447Y-60449035D01*
X79184338Y-60438879D01*
X79177238Y-60425582D01*
X79171883Y-60407583D01*
X79168010Y-60383319D01*
X79165355Y-60351226D01*
X79163653Y-60309742D01*
X79162641Y-60257304D01*
X79162055Y-60192350D01*
X79161631Y-60113315D01*
X79161217Y-60036503D01*
X79160642Y-59941744D01*
X79160310Y-59862393D01*
X79160447Y-59796923D01*
X79161276Y-59743809D01*
X79163023Y-59701525D01*
X79165912Y-59668544D01*
X79170169Y-59643341D01*
X79176018Y-59624391D01*
X79183684Y-59610166D01*
X79193392Y-59599142D01*
X79205367Y-59589791D01*
X79219833Y-59580589D01*
X79229236Y-59574853D01*
X79251917Y-59562025D01*
X79268329Y-59554789D01*
X79273758Y-59554269D01*
X79274498Y-59563277D01*
G37*
X79274498Y-59563277D02*
X79275120Y-59587680D01*
X79275616Y-59625940D01*
X79275981Y-59676518D01*
X79276208Y-59737878D01*
X79276289Y-59808481D01*
X79276220Y-59886788D01*
X79275993Y-59971263D01*
X79275755Y-60029311D01*
X79273567Y-60500168D01*
X79235467Y-60476294D01*
X79218747Y-60466180D01*
X79204829Y-60457615D01*
X79193447Y-60449035D01*
X79184338Y-60438879D01*
X79177238Y-60425582D01*
X79171883Y-60407583D01*
X79168010Y-60383319D01*
X79165355Y-60351226D01*
X79163653Y-60309742D01*
X79162641Y-60257304D01*
X79162055Y-60192350D01*
X79161631Y-60113315D01*
X79161217Y-60036503D01*
X79160642Y-59941744D01*
X79160310Y-59862393D01*
X79160447Y-59796923D01*
X79161276Y-59743809D01*
X79163023Y-59701525D01*
X79165912Y-59668544D01*
X79170169Y-59643341D01*
X79176018Y-59624391D01*
X79183684Y-59610166D01*
X79193392Y-59599142D01*
X79205367Y-59589791D01*
X79219833Y-59580589D01*
X79229236Y-59574853D01*
X79251917Y-59562025D01*
X79268329Y-59554789D01*
X79273758Y-59554269D01*
X79274498Y-59563277D01*
G36*
X77440533Y-59564010D02*
G01*
X77455842Y-59569313D01*
X77482973Y-59581955D01*
X77519296Y-59600451D01*
X77562179Y-59623318D01*
X77608992Y-59649070D01*
X77657105Y-59676223D01*
X77703887Y-59703293D01*
X77746707Y-59728795D01*
X77782935Y-59751244D01*
X77809940Y-59769157D01*
X77825038Y-59780994D01*
X77830418Y-59787109D01*
X77834615Y-59794792D01*
X77837807Y-59806122D01*
X77840171Y-59823180D01*
X77841884Y-59848047D01*
X77843124Y-59882802D01*
X77844067Y-59929526D01*
X77844891Y-59990299D01*
X77845214Y-60017976D01*
X77847729Y-60237310D01*
X77824048Y-60263009D01*
X77807114Y-60277445D01*
X77778635Y-60297431D01*
X77741216Y-60321492D01*
X77697462Y-60348156D01*
X77649977Y-60375950D01*
X77601366Y-60403402D01*
X77554232Y-60429038D01*
X77511181Y-60451386D01*
X77474818Y-60468974D01*
X77447745Y-60480327D01*
X77433251Y-60484000D01*
X77415914Y-60480797D01*
X77390059Y-60470691D01*
X77354121Y-60452942D01*
X77306537Y-60426807D01*
X77277120Y-60409917D01*
X77235129Y-60385608D01*
X77198147Y-60364321D01*
X77168692Y-60347494D01*
X77149279Y-60336565D01*
X77142609Y-60333011D01*
X77140393Y-60340085D01*
X77138474Y-60361455D01*
X77136975Y-60394488D01*
X77136023Y-60436548D01*
X77135734Y-60479061D01*
X77135367Y-60527145D01*
X77134349Y-60568764D01*
X77132805Y-60601213D01*
X77130857Y-60621791D01*
X77128924Y-60627934D01*
X77118451Y-60623716D01*
X77099001Y-60612910D01*
X77084474Y-60603980D01*
X77069492Y-60594723D01*
X77057085Y-60586701D01*
X77047002Y-60578316D01*
X77038992Y-60567968D01*
X77032803Y-60554058D01*
X77028183Y-60534987D01*
X77024882Y-60509157D01*
X77022648Y-60474968D01*
X77021229Y-60430822D01*
X77020374Y-60375120D01*
X77019832Y-60306262D01*
X77019351Y-60222650D01*
X77019144Y-60188492D01*
X77018629Y-60100220D01*
X77018344Y-60027265D01*
X77018344Y-60021762D01*
X77135863Y-60021762D01*
X77136217Y-60072766D01*
X77137123Y-60118152D01*
X77138479Y-60155124D01*
X77140180Y-60180882D01*
X77142123Y-60192630D01*
X77142213Y-60192783D01*
X77151007Y-60199533D01*
X77171689Y-60212951D01*
X77201413Y-60231355D01*
X77237333Y-60253069D01*
X77276603Y-60276411D01*
X77316377Y-60299704D01*
X77353810Y-60321269D01*
X77386055Y-60339425D01*
X77410267Y-60352495D01*
X77423599Y-60358799D01*
X77423600Y-60358799D01*
X77430332Y-60359878D01*
X77439537Y-60358314D01*
X77453114Y-60353156D01*
X77472963Y-60343450D01*
X77500983Y-60328245D01*
X77539073Y-60306589D01*
X77589131Y-60277529D01*
X77609867Y-60265412D01*
X77724167Y-60198549D01*
X77726453Y-60024666D01*
X77728738Y-59850783D01*
X77587407Y-59769458D01*
X77542749Y-59744119D01*
X77502581Y-59722001D01*
X77469392Y-59704423D01*
X77445675Y-59692700D01*
X77433917Y-59688150D01*
X77433640Y-59688134D01*
X77422697Y-59692187D01*
X77400107Y-59703258D01*
X77368779Y-59719712D01*
X77331624Y-59739916D01*
X77291550Y-59762235D01*
X77251468Y-59785035D01*
X77214287Y-59806684D01*
X77182917Y-59825546D01*
X77160267Y-59839988D01*
X77150550Y-59847111D01*
X77145348Y-59853282D01*
X77141516Y-59862952D01*
X77138855Y-59878510D01*
X77137164Y-59902344D01*
X77136241Y-59936842D01*
X77135886Y-59984392D01*
X77135863Y-60021762D01*
X77018344Y-60021762D01*
X77018342Y-59968011D01*
X77018676Y-59920844D01*
X77019398Y-59884147D01*
X77020561Y-59856305D01*
X77022217Y-59835702D01*
X77024419Y-59820724D01*
X77027220Y-59809755D01*
X77030673Y-59801178D01*
X77031844Y-59798831D01*
X77038895Y-59788227D01*
X77050394Y-59776575D01*
X77068109Y-59762674D01*
X77093810Y-59745322D01*
X77129265Y-59723317D01*
X77176244Y-59695455D01*
X77228867Y-59664940D01*
X77286526Y-59631897D01*
X77331597Y-59606597D01*
X77366036Y-59588108D01*
X77391797Y-59575498D01*
X77410835Y-59567834D01*
X77425104Y-59564185D01*
X77436561Y-59563618D01*
X77440533Y-59564010D01*
G37*
X77440533Y-59564010D02*
X77455842Y-59569313D01*
X77482973Y-59581955D01*
X77519296Y-59600451D01*
X77562179Y-59623318D01*
X77608992Y-59649070D01*
X77657105Y-59676223D01*
X77703887Y-59703293D01*
X77746707Y-59728795D01*
X77782935Y-59751244D01*
X77809940Y-59769157D01*
X77825038Y-59780994D01*
X77830418Y-59787109D01*
X77834615Y-59794792D01*
X77837807Y-59806122D01*
X77840171Y-59823180D01*
X77841884Y-59848047D01*
X77843124Y-59882802D01*
X77844067Y-59929526D01*
X77844891Y-59990299D01*
X77845214Y-60017976D01*
X77847729Y-60237310D01*
X77824048Y-60263009D01*
X77807114Y-60277445D01*
X77778635Y-60297431D01*
X77741216Y-60321492D01*
X77697462Y-60348156D01*
X77649977Y-60375950D01*
X77601366Y-60403402D01*
X77554232Y-60429038D01*
X77511181Y-60451386D01*
X77474818Y-60468974D01*
X77447745Y-60480327D01*
X77433251Y-60484000D01*
X77415914Y-60480797D01*
X77390059Y-60470691D01*
X77354121Y-60452942D01*
X77306537Y-60426807D01*
X77277120Y-60409917D01*
X77235129Y-60385608D01*
X77198147Y-60364321D01*
X77168692Y-60347494D01*
X77149279Y-60336565D01*
X77142609Y-60333011D01*
X77140393Y-60340085D01*
X77138474Y-60361455D01*
X77136975Y-60394488D01*
X77136023Y-60436548D01*
X77135734Y-60479061D01*
X77135367Y-60527145D01*
X77134349Y-60568764D01*
X77132805Y-60601213D01*
X77130857Y-60621791D01*
X77128924Y-60627934D01*
X77118451Y-60623716D01*
X77099001Y-60612910D01*
X77084474Y-60603980D01*
X77069492Y-60594723D01*
X77057085Y-60586701D01*
X77047002Y-60578316D01*
X77038992Y-60567968D01*
X77032803Y-60554058D01*
X77028183Y-60534987D01*
X77024882Y-60509157D01*
X77022648Y-60474968D01*
X77021229Y-60430822D01*
X77020374Y-60375120D01*
X77019832Y-60306262D01*
X77019351Y-60222650D01*
X77019144Y-60188492D01*
X77018629Y-60100220D01*
X77018344Y-60027265D01*
X77018344Y-60021762D01*
X77135863Y-60021762D01*
X77136217Y-60072766D01*
X77137123Y-60118152D01*
X77138479Y-60155124D01*
X77140180Y-60180882D01*
X77142123Y-60192630D01*
X77142213Y-60192783D01*
X77151007Y-60199533D01*
X77171689Y-60212951D01*
X77201413Y-60231355D01*
X77237333Y-60253069D01*
X77276603Y-60276411D01*
X77316377Y-60299704D01*
X77353810Y-60321269D01*
X77386055Y-60339425D01*
X77410267Y-60352495D01*
X77423599Y-60358799D01*
X77423600Y-60358799D01*
X77430332Y-60359878D01*
X77439537Y-60358314D01*
X77453114Y-60353156D01*
X77472963Y-60343450D01*
X77500983Y-60328245D01*
X77539073Y-60306589D01*
X77589131Y-60277529D01*
X77609867Y-60265412D01*
X77724167Y-60198549D01*
X77726453Y-60024666D01*
X77728738Y-59850783D01*
X77587407Y-59769458D01*
X77542749Y-59744119D01*
X77502581Y-59722001D01*
X77469392Y-59704423D01*
X77445675Y-59692700D01*
X77433917Y-59688150D01*
X77433640Y-59688134D01*
X77422697Y-59692187D01*
X77400107Y-59703258D01*
X77368779Y-59719712D01*
X77331624Y-59739916D01*
X77291550Y-59762235D01*
X77251468Y-59785035D01*
X77214287Y-59806684D01*
X77182917Y-59825546D01*
X77160267Y-59839988D01*
X77150550Y-59847111D01*
X77145348Y-59853282D01*
X77141516Y-59862952D01*
X77138855Y-59878510D01*
X77137164Y-59902344D01*
X77136241Y-59936842D01*
X77135886Y-59984392D01*
X77135863Y-60021762D01*
X77018344Y-60021762D01*
X77018342Y-59968011D01*
X77018676Y-59920844D01*
X77019398Y-59884147D01*
X77020561Y-59856305D01*
X77022217Y-59835702D01*
X77024419Y-59820724D01*
X77027220Y-59809755D01*
X77030673Y-59801178D01*
X77031844Y-59798831D01*
X77038895Y-59788227D01*
X77050394Y-59776575D01*
X77068109Y-59762674D01*
X77093810Y-59745322D01*
X77129265Y-59723317D01*
X77176244Y-59695455D01*
X77228867Y-59664940D01*
X77286526Y-59631897D01*
X77331597Y-59606597D01*
X77366036Y-59588108D01*
X77391797Y-59575498D01*
X77410835Y-59567834D01*
X77425104Y-59564185D01*
X77436561Y-59563618D01*
X77440533Y-59564010D01*
G36*
X79822894Y-60635631D02*
G01*
X79832367Y-60640355D01*
X79846729Y-60656958D01*
X79848231Y-60676179D01*
X79839403Y-60693571D01*
X79822774Y-60704687D01*
X79800874Y-60705082D01*
X79796383Y-60703601D01*
X79781659Y-60692139D01*
X79777334Y-60670592D01*
X79777333Y-60670267D01*
X79783899Y-60646935D01*
X79800589Y-60634572D01*
X79822894Y-60635631D01*
G37*
X79822894Y-60635631D02*
X79832367Y-60640355D01*
X79846729Y-60656958D01*
X79848231Y-60676179D01*
X79839403Y-60693571D01*
X79822774Y-60704687D01*
X79800874Y-60705082D01*
X79796383Y-60703601D01*
X79781659Y-60692139D01*
X79777334Y-60670592D01*
X79777333Y-60670267D01*
X79783899Y-60646935D01*
X79800589Y-60634572D01*
X79822894Y-60635631D01*
G36*
X80705107Y-60775513D02*
G01*
X80729497Y-60787038D01*
X80751280Y-60806113D01*
X80765337Y-60827546D01*
X80767934Y-60839215D01*
X80761552Y-60852601D01*
X80745091Y-60856620D01*
X80722579Y-60851273D01*
X80701467Y-60839198D01*
X80681870Y-60827831D01*
X80664349Y-60827611D01*
X80654627Y-60830756D01*
X80636111Y-60841925D01*
X80634094Y-60854687D01*
X80648269Y-60868569D01*
X80678327Y-60883096D01*
X80691841Y-60888007D01*
X80732529Y-60904679D01*
X80758489Y-60922938D01*
X80771907Y-60945170D01*
X80774969Y-60973758D01*
X80774699Y-60978359D01*
X80769930Y-61003971D01*
X80757117Y-61021599D01*
X80743398Y-61031940D01*
X80709817Y-61046252D01*
X80670393Y-61051084D01*
X80632662Y-61046014D01*
X80615867Y-61039131D01*
X80597692Y-61023773D01*
X80581124Y-61001682D01*
X80579741Y-60999215D01*
X80564449Y-60970834D01*
X80590915Y-60968112D01*
X80618361Y-60971598D01*
X80633720Y-60982928D01*
X80653692Y-60995746D01*
X80678236Y-61000650D01*
X80700987Y-60997428D01*
X80715577Y-60985869D01*
X80715692Y-60985650D01*
X80720615Y-60969165D01*
X80714460Y-60956504D01*
X80695237Y-60945703D01*
X80665473Y-60936048D01*
X80622209Y-60918920D01*
X80592433Y-60896187D01*
X80577316Y-60869057D01*
X80576674Y-60844409D01*
X80590368Y-60814506D01*
X80616204Y-60791058D01*
X80649914Y-60776357D01*
X80687226Y-60772693D01*
X80705107Y-60775513D01*
G37*
X80705107Y-60775513D02*
X80729497Y-60787038D01*
X80751280Y-60806113D01*
X80765337Y-60827546D01*
X80767934Y-60839215D01*
X80761552Y-60852601D01*
X80745091Y-60856620D01*
X80722579Y-60851273D01*
X80701467Y-60839198D01*
X80681870Y-60827831D01*
X80664349Y-60827611D01*
X80654627Y-60830756D01*
X80636111Y-60841925D01*
X80634094Y-60854687D01*
X80648269Y-60868569D01*
X80678327Y-60883096D01*
X80691841Y-60888007D01*
X80732529Y-60904679D01*
X80758489Y-60922938D01*
X80771907Y-60945170D01*
X80774969Y-60973758D01*
X80774699Y-60978359D01*
X80769930Y-61003971D01*
X80757117Y-61021599D01*
X80743398Y-61031940D01*
X80709817Y-61046252D01*
X80670393Y-61051084D01*
X80632662Y-61046014D01*
X80615867Y-61039131D01*
X80597692Y-61023773D01*
X80581124Y-61001682D01*
X80579741Y-60999215D01*
X80564449Y-60970834D01*
X80590915Y-60968112D01*
X80618361Y-60971598D01*
X80633720Y-60982928D01*
X80653692Y-60995746D01*
X80678236Y-61000650D01*
X80700987Y-60997428D01*
X80715577Y-60985869D01*
X80715692Y-60985650D01*
X80720615Y-60969165D01*
X80714460Y-60956504D01*
X80695237Y-60945703D01*
X80665473Y-60936048D01*
X80622209Y-60918920D01*
X80592433Y-60896187D01*
X80577316Y-60869057D01*
X80576674Y-60844409D01*
X80590368Y-60814506D01*
X80616204Y-60791058D01*
X80649914Y-60776357D01*
X80687226Y-60772693D01*
X80705107Y-60775513D01*
G36*
X80263744Y-60777688D02*
G01*
X80310441Y-60798276D01*
X80339782Y-60816170D01*
X80316811Y-60835928D01*
X80300758Y-60848243D01*
X80287656Y-60851065D01*
X80269382Y-60845431D01*
X80262985Y-60842794D01*
X80226019Y-60834600D01*
X80193365Y-60840680D01*
X80167982Y-60859226D01*
X80152829Y-60888430D01*
X80149867Y-60911888D01*
X80156864Y-60948014D01*
X80176310Y-60974773D01*
X80205885Y-60989711D01*
X80225603Y-60992000D01*
X80251038Y-60988860D01*
X80271363Y-60981207D01*
X80272704Y-60980295D01*
X80285617Y-60973656D01*
X80298521Y-60976786D01*
X80312246Y-60985991D01*
X80327387Y-60999551D01*
X80329316Y-61009920D01*
X80325990Y-61015187D01*
X80298778Y-61035867D01*
X80261801Y-61047775D01*
X80220100Y-61050358D01*
X80178716Y-61043061D01*
X80156311Y-61033805D01*
X80120658Y-61006370D01*
X80097357Y-60970377D01*
X80086793Y-60929247D01*
X80089347Y-60886399D01*
X80105403Y-60845253D01*
X80131566Y-60812641D01*
X80172457Y-60784646D01*
X80216954Y-60772960D01*
X80263744Y-60777688D01*
G37*
X80263744Y-60777688D02*
X80310441Y-60798276D01*
X80339782Y-60816170D01*
X80316811Y-60835928D01*
X80300758Y-60848243D01*
X80287656Y-60851065D01*
X80269382Y-60845431D01*
X80262985Y-60842794D01*
X80226019Y-60834600D01*
X80193365Y-60840680D01*
X80167982Y-60859226D01*
X80152829Y-60888430D01*
X80149867Y-60911888D01*
X80156864Y-60948014D01*
X80176310Y-60974773D01*
X80205885Y-60989711D01*
X80225603Y-60992000D01*
X80251038Y-60988860D01*
X80271363Y-60981207D01*
X80272704Y-60980295D01*
X80285617Y-60973656D01*
X80298521Y-60976786D01*
X80312246Y-60985991D01*
X80327387Y-60999551D01*
X80329316Y-61009920D01*
X80325990Y-61015187D01*
X80298778Y-61035867D01*
X80261801Y-61047775D01*
X80220100Y-61050358D01*
X80178716Y-61043061D01*
X80156311Y-61033805D01*
X80120658Y-61006370D01*
X80097357Y-60970377D01*
X80086793Y-60929247D01*
X80089347Y-60886399D01*
X80105403Y-60845253D01*
X80131566Y-60812641D01*
X80172457Y-60784646D01*
X80216954Y-60772960D01*
X80263744Y-60777688D01*
G36*
X79845067Y-61051267D02*
G01*
X79785800Y-61051267D01*
X79785800Y-60780334D01*
X79845067Y-60780334D01*
X79845067Y-61051267D01*
G37*
X79845067Y-61051267D02*
X79785800Y-61051267D01*
X79785800Y-60780334D01*
X79845067Y-60780334D01*
X79845067Y-61051267D01*
G36*
X79489467Y-60780334D02*
G01*
X79514867Y-60780334D01*
X79532858Y-60782431D01*
X79539489Y-60792327D01*
X79540267Y-60805734D01*
X79538161Y-60823730D01*
X79528284Y-60830363D01*
X79515120Y-60831134D01*
X79489973Y-60831134D01*
X79485233Y-61047034D01*
X79459529Y-61049551D01*
X79439453Y-61049537D01*
X79427779Y-61046024D01*
X79425461Y-61035677D01*
X79423554Y-61011880D01*
X79422248Y-60978114D01*
X79421735Y-60937858D01*
X79421733Y-60935556D01*
X79421733Y-60831134D01*
X79400567Y-60831134D01*
X79385440Y-60828400D01*
X79379906Y-60816779D01*
X79379400Y-60805734D01*
X79381678Y-60787581D01*
X79391362Y-60780940D01*
X79400567Y-60780334D01*
X79412298Y-60779258D01*
X79418631Y-60773380D01*
X79421224Y-60758724D01*
X79421733Y-60731314D01*
X79421733Y-60678734D01*
X79489467Y-60678734D01*
X79489467Y-60780334D01*
G37*
X79489467Y-60780334D02*
X79514867Y-60780334D01*
X79532858Y-60782431D01*
X79539489Y-60792327D01*
X79540267Y-60805734D01*
X79538161Y-60823730D01*
X79528284Y-60830363D01*
X79515120Y-60831134D01*
X79489973Y-60831134D01*
X79485233Y-61047034D01*
X79459529Y-61049551D01*
X79439453Y-61049537D01*
X79427779Y-61046024D01*
X79425461Y-61035677D01*
X79423554Y-61011880D01*
X79422248Y-60978114D01*
X79421735Y-60937858D01*
X79421733Y-60935556D01*
X79421733Y-60831134D01*
X79400567Y-60831134D01*
X79385440Y-60828400D01*
X79379906Y-60816779D01*
X79379400Y-60805734D01*
X79381678Y-60787581D01*
X79391362Y-60780940D01*
X79400567Y-60780334D01*
X79412298Y-60779258D01*
X79418631Y-60773380D01*
X79421224Y-60758724D01*
X79421733Y-60731314D01*
X79421733Y-60678734D01*
X79489467Y-60678734D01*
X79489467Y-60780334D01*
G36*
X79025115Y-60774356D02*
G01*
X79068338Y-60787843D01*
X79103059Y-60813634D01*
X79127803Y-60848624D01*
X79141100Y-60889713D01*
X79141476Y-60933797D01*
X79127458Y-60977775D01*
X79124402Y-60983499D01*
X79097107Y-61016413D01*
X79060371Y-61039203D01*
X79018503Y-61050788D01*
X78975806Y-61050086D01*
X78936588Y-61036014D01*
X78930581Y-61032217D01*
X78896788Y-61004461D01*
X78876913Y-60974442D01*
X78868201Y-60936953D01*
X78867419Y-60918377D01*
X78926768Y-60918377D01*
X78930898Y-60937667D01*
X78948650Y-60968895D01*
X78974804Y-60987463D01*
X79005609Y-60992499D01*
X79037313Y-60983131D01*
X79058318Y-60967251D01*
X79077589Y-60938419D01*
X79082561Y-60908184D01*
X79075257Y-60879659D01*
X79057698Y-60855954D01*
X79031907Y-60840180D01*
X78999907Y-60835450D01*
X78975688Y-60840110D01*
X78947356Y-60857461D01*
X78930455Y-60884845D01*
X78926768Y-60918377D01*
X78867419Y-60918377D01*
X78867167Y-60912404D01*
X78868458Y-60879736D01*
X78873629Y-60856893D01*
X78884623Y-60836876D01*
X78890305Y-60829114D01*
X78923067Y-60799131D01*
X78964932Y-60779746D01*
X79010238Y-60773258D01*
X79025115Y-60774356D01*
G37*
X79025115Y-60774356D02*
X79068338Y-60787843D01*
X79103059Y-60813634D01*
X79127803Y-60848624D01*
X79141100Y-60889713D01*
X79141476Y-60933797D01*
X79127458Y-60977775D01*
X79124402Y-60983499D01*
X79097107Y-61016413D01*
X79060371Y-61039203D01*
X79018503Y-61050788D01*
X78975806Y-61050086D01*
X78936588Y-61036014D01*
X78930581Y-61032217D01*
X78896788Y-61004461D01*
X78876913Y-60974442D01*
X78868201Y-60936953D01*
X78867419Y-60918377D01*
X78926768Y-60918377D01*
X78930898Y-60937667D01*
X78948650Y-60968895D01*
X78974804Y-60987463D01*
X79005609Y-60992499D01*
X79037313Y-60983131D01*
X79058318Y-60967251D01*
X79077589Y-60938419D01*
X79082561Y-60908184D01*
X79075257Y-60879659D01*
X79057698Y-60855954D01*
X79031907Y-60840180D01*
X78999907Y-60835450D01*
X78975688Y-60840110D01*
X78947356Y-60857461D01*
X78930455Y-60884845D01*
X78926768Y-60918377D01*
X78867419Y-60918377D01*
X78867167Y-60912404D01*
X78868458Y-60879736D01*
X78873629Y-60856893D01*
X78884623Y-60836876D01*
X78890305Y-60829114D01*
X78923067Y-60799131D01*
X78964932Y-60779746D01*
X79010238Y-60773258D01*
X79025115Y-60774356D01*
G36*
X78405734Y-60817152D02*
G01*
X78426624Y-60797526D01*
X78458027Y-60778790D01*
X78495407Y-60772857D01*
X78534605Y-60778965D01*
X78571464Y-60796352D01*
X78601826Y-60824255D01*
X78606391Y-60830497D01*
X78625730Y-60871664D01*
X78631058Y-60914598D01*
X78623820Y-60956312D01*
X78605459Y-60993819D01*
X78577418Y-61024132D01*
X78541141Y-61044262D01*
X78499731Y-61051235D01*
X78460993Y-61045926D01*
X78433250Y-61034426D01*
X78415342Y-61023955D01*
X78407608Y-61022323D01*
X78405773Y-61029534D01*
X78405734Y-61034458D01*
X78402390Y-61046032D01*
X78389380Y-61050714D01*
X78375952Y-61051267D01*
X78346171Y-61051267D01*
X78347516Y-60926791D01*
X78412138Y-60926791D01*
X78423520Y-60957047D01*
X78434982Y-60971218D01*
X78463444Y-60988801D01*
X78496199Y-60992414D01*
X78528080Y-60982128D01*
X78544279Y-60969679D01*
X78561713Y-60941933D01*
X78566309Y-60910214D01*
X78559210Y-60879097D01*
X78541560Y-60853157D01*
X78514502Y-60836970D01*
X78510848Y-60835943D01*
X78476769Y-60834623D01*
X78447934Y-60846477D01*
X78426269Y-60868076D01*
X78413696Y-60895991D01*
X78412138Y-60926791D01*
X78347516Y-60926791D01*
X78348436Y-60841717D01*
X78350700Y-60632167D01*
X78405734Y-60626861D01*
X78405734Y-60817152D01*
G37*
X78405734Y-60817152D02*
X78426624Y-60797526D01*
X78458027Y-60778790D01*
X78495407Y-60772857D01*
X78534605Y-60778965D01*
X78571464Y-60796352D01*
X78601826Y-60824255D01*
X78606391Y-60830497D01*
X78625730Y-60871664D01*
X78631058Y-60914598D01*
X78623820Y-60956312D01*
X78605459Y-60993819D01*
X78577418Y-61024132D01*
X78541141Y-61044262D01*
X78499731Y-61051235D01*
X78460993Y-61045926D01*
X78433250Y-61034426D01*
X78415342Y-61023955D01*
X78407608Y-61022323D01*
X78405773Y-61029534D01*
X78405734Y-61034458D01*
X78402390Y-61046032D01*
X78389380Y-61050714D01*
X78375952Y-61051267D01*
X78346171Y-61051267D01*
X78347516Y-60926791D01*
X78412138Y-60926791D01*
X78423520Y-60957047D01*
X78434982Y-60971218D01*
X78463444Y-60988801D01*
X78496199Y-60992414D01*
X78528080Y-60982128D01*
X78544279Y-60969679D01*
X78561713Y-60941933D01*
X78566309Y-60910214D01*
X78559210Y-60879097D01*
X78541560Y-60853157D01*
X78514502Y-60836970D01*
X78510848Y-60835943D01*
X78476769Y-60834623D01*
X78447934Y-60846477D01*
X78426269Y-60868076D01*
X78413696Y-60895991D01*
X78412138Y-60926791D01*
X78347516Y-60926791D01*
X78348436Y-60841717D01*
X78350700Y-60632167D01*
X78405734Y-60626861D01*
X78405734Y-60817152D01*
G36*
X78000102Y-60776404D02*
G01*
X78041196Y-60790507D01*
X78076183Y-60815656D01*
X78102127Y-60850093D01*
X78116091Y-60892060D01*
X78117681Y-60911890D01*
X78112057Y-60942386D01*
X78097224Y-60976968D01*
X78076813Y-61008676D01*
X78056597Y-61029056D01*
X78034249Y-61039020D01*
X78002207Y-61046238D01*
X77967489Y-61049839D01*
X77937109Y-61048954D01*
X77923134Y-61045610D01*
X77881598Y-61020326D01*
X77853081Y-60984470D01*
X77838199Y-60938994D01*
X77836398Y-60915118D01*
X77897734Y-60915118D01*
X77904885Y-60948502D01*
X77923769Y-60973605D01*
X77950534Y-60988764D01*
X77981325Y-60992316D01*
X78012288Y-60982597D01*
X78027731Y-60971238D01*
X78045904Y-60943935D01*
X78051502Y-60911225D01*
X78044486Y-60878933D01*
X78028490Y-60856085D01*
X77999009Y-60838107D01*
X77967778Y-60834506D01*
X77938476Y-60843620D01*
X77914785Y-60863789D01*
X77900384Y-60893351D01*
X77897734Y-60915118D01*
X77836398Y-60915118D01*
X77836048Y-60910488D01*
X77842953Y-60862610D01*
X77863838Y-60824239D01*
X77898952Y-60794968D01*
X77911332Y-60788365D01*
X77955835Y-60775104D01*
X78000102Y-60776404D01*
G37*
X78000102Y-60776404D02*
X78041196Y-60790507D01*
X78076183Y-60815656D01*
X78102127Y-60850093D01*
X78116091Y-60892060D01*
X78117681Y-60911890D01*
X78112057Y-60942386D01*
X78097224Y-60976968D01*
X78076813Y-61008676D01*
X78056597Y-61029056D01*
X78034249Y-61039020D01*
X78002207Y-61046238D01*
X77967489Y-61049839D01*
X77937109Y-61048954D01*
X77923134Y-61045610D01*
X77881598Y-61020326D01*
X77853081Y-60984470D01*
X77838199Y-60938994D01*
X77836398Y-60915118D01*
X77897734Y-60915118D01*
X77904885Y-60948502D01*
X77923769Y-60973605D01*
X77950534Y-60988764D01*
X77981325Y-60992316D01*
X78012288Y-60982597D01*
X78027731Y-60971238D01*
X78045904Y-60943935D01*
X78051502Y-60911225D01*
X78044486Y-60878933D01*
X78028490Y-60856085D01*
X77999009Y-60838107D01*
X77967778Y-60834506D01*
X77938476Y-60843620D01*
X77914785Y-60863789D01*
X77900384Y-60893351D01*
X77897734Y-60915118D01*
X77836398Y-60915118D01*
X77836048Y-60910488D01*
X77842953Y-60862610D01*
X77863838Y-60824239D01*
X77898952Y-60794968D01*
X77911332Y-60788365D01*
X77955835Y-60775104D01*
X78000102Y-60776404D01*
G36*
X77579324Y-60773237D02*
G01*
X77594254Y-60784761D01*
X77598738Y-60804943D01*
X77597709Y-60811730D01*
X77592489Y-60827776D01*
X77582611Y-60834772D01*
X77562444Y-60836147D01*
X77557713Y-60836071D01*
X77532299Y-60838032D01*
X77515280Y-60847600D01*
X77505158Y-60859246D01*
X77496381Y-60873581D01*
X77490570Y-60891471D01*
X77486933Y-60916996D01*
X77484678Y-60954238D01*
X77484190Y-60967196D01*
X77481280Y-61051267D01*
X77423600Y-61051267D01*
X77423600Y-60780334D01*
X77453233Y-60780334D01*
X77473308Y-60781950D01*
X77481519Y-60789078D01*
X77482867Y-60800849D01*
X77482867Y-60821364D01*
X77507616Y-60796616D01*
X77532429Y-60778564D01*
X77557524Y-60770972D01*
X77579324Y-60773237D01*
G37*
X77579324Y-60773237D02*
X77594254Y-60784761D01*
X77598738Y-60804943D01*
X77597709Y-60811730D01*
X77592489Y-60827776D01*
X77582611Y-60834772D01*
X77562444Y-60836147D01*
X77557713Y-60836071D01*
X77532299Y-60838032D01*
X77515280Y-60847600D01*
X77505158Y-60859246D01*
X77496381Y-60873581D01*
X77490570Y-60891471D01*
X77486933Y-60916996D01*
X77484678Y-60954238D01*
X77484190Y-60967196D01*
X77481280Y-61051267D01*
X77423600Y-61051267D01*
X77423600Y-60780334D01*
X77453233Y-60780334D01*
X77473308Y-60781950D01*
X77481519Y-60789078D01*
X77482867Y-60800849D01*
X77482867Y-60821364D01*
X77507616Y-60796616D01*
X77532429Y-60778564D01*
X77557524Y-60770972D01*
X77579324Y-60773237D01*
D10*
X69850000Y-64000000D02*
X69850000Y-62800000D01*
X72250000Y-64000000D02*
X69850000Y-64000000D01*
X72250000Y-62800000D02*
X72250000Y-64000000D01*
X69850000Y-62800000D02*
X72250000Y-62800000D01*
D12*
X73812500Y-59175000D02*
X74412500Y-59175000D01*
X73012500Y-59175000D02*
X73112500Y-59175000D01*
X73112500Y-60525000D02*
X73012500Y-60525000D01*
X73562500Y-60250000D02*
G75*
G03X73562500Y-60250000I-100000J0D01*
G01*
X75212500Y-59175000D02*
X75212500Y-60525000D01*
X75212500Y-60525000D02*
X75112500Y-60525000D01*
X75112500Y-59175000D02*
X75212500Y-59175000D01*
X73012500Y-60525000D02*
X73012500Y-59175000D01*
D11*
X67812500Y-62460000D02*
X69612500Y-62460000D01*
X69612500Y-59240000D02*
X67162500Y-59240000D01*
X69588000Y-55440000D02*
X67788000Y-55440000D01*
X67788000Y-58660000D02*
X70238000Y-58660000D01*
X68880000Y-65085000D02*
X67180000Y-65085000D01*
X67180000Y-65085000D02*
X67180000Y-67635000D01*
X68880000Y-65085000D02*
X68880000Y-67635000D01*
D10*
X79137500Y-67750000D02*
X77887500Y-69000000D01*
X69237500Y-69000000D02*
X77887500Y-69000000D01*
X79137500Y-67750000D02*
X79137500Y-64100000D01*
X69237500Y-64100000D02*
X69237500Y-69000000D01*
X79137500Y-64100000D02*
X69237500Y-64100000D01*
D11*
X77720000Y-72185000D02*
X78650000Y-72185000D01*
X80880000Y-72185000D02*
X79950000Y-72185000D01*
X80880000Y-72185000D02*
X80880000Y-70025000D01*
X77720000Y-72185000D02*
X77720000Y-70725000D01*
X72670000Y-72215000D02*
X72670000Y-70755000D01*
X75830000Y-72215000D02*
X75830000Y-70055000D01*
X75830000Y-72215000D02*
X74900000Y-72215000D01*
X72670000Y-72215000D02*
X73600000Y-72215000D01*
X67570000Y-72235000D02*
X68500000Y-72235000D01*
X70730000Y-72235000D02*
X69800000Y-72235000D01*
X70730000Y-72235000D02*
X70730000Y-70075000D01*
X67570000Y-72235000D02*
X67570000Y-70775000D01*
X77550000Y-73475000D02*
X77550000Y-74725000D01*
X78800000Y-73475000D02*
X77550000Y-73475000D01*
X80900000Y-77875000D02*
X80900000Y-77375000D01*
X81000000Y-77375000D02*
X81000000Y-77875000D01*
X80800000Y-77375000D02*
X81000000Y-77375000D01*
X80800000Y-77875000D02*
X80800000Y-77375000D01*
X79600000Y-73675000D02*
X79300000Y-73675000D01*
X79300000Y-73575000D02*
X79300000Y-73775000D01*
X79600000Y-73575000D02*
X79300000Y-73575000D01*
X79600000Y-73775000D02*
X79600000Y-73575000D01*
X83950000Y-76375000D02*
X83350000Y-76375000D01*
X83950000Y-75075000D02*
X83350000Y-75075000D01*
X77850000Y-76375000D02*
X78450000Y-76375000D01*
X77850000Y-75075000D02*
X78450000Y-75075000D01*
X81400000Y-74375000D02*
X81400000Y-73775000D01*
X83350000Y-74375000D02*
X81400000Y-74375000D01*
X83350000Y-77875000D02*
X83350000Y-74375000D01*
X78450000Y-77875000D02*
X83350000Y-77875000D01*
X78450000Y-74375000D02*
X78450000Y-77875000D01*
X80400000Y-74375000D02*
X78450000Y-74375000D01*
X80400000Y-73775000D02*
X80400000Y-74375000D01*
X83950000Y-73775000D02*
X77850000Y-73775000D01*
X83950000Y-78475000D02*
X83950000Y-73775000D01*
X77850000Y-78475000D02*
X83950000Y-78475000D01*
X77850000Y-73775000D02*
X77850000Y-78475000D01*
X70900000Y-73475000D02*
X70900000Y-74725000D01*
X72150000Y-73475000D02*
X70900000Y-73475000D01*
X74250000Y-77875000D02*
X74250000Y-77375000D01*
X74350000Y-77375000D02*
X74350000Y-77875000D01*
X74150000Y-77375000D02*
X74350000Y-77375000D01*
X74150000Y-77875000D02*
X74150000Y-77375000D01*
X72950000Y-73675000D02*
X72650000Y-73675000D01*
X72650000Y-73575000D02*
X72650000Y-73775000D01*
X72950000Y-73575000D02*
X72650000Y-73575000D01*
X72950000Y-73775000D02*
X72950000Y-73575000D01*
X77300000Y-76375000D02*
X76700000Y-76375000D01*
X77300000Y-75075000D02*
X76700000Y-75075000D01*
X71200000Y-76375000D02*
X71800000Y-76375000D01*
X71200000Y-75075000D02*
X71800000Y-75075000D01*
X74750000Y-74375000D02*
X74750000Y-73775000D01*
X76700000Y-74375000D02*
X74750000Y-74375000D01*
X76700000Y-77875000D02*
X76700000Y-74375000D01*
X71800000Y-77875000D02*
X76700000Y-77875000D01*
X71800000Y-74375000D02*
X71800000Y-77875000D01*
X73750000Y-74375000D02*
X71800000Y-74375000D01*
X73750000Y-73775000D02*
X73750000Y-74375000D01*
X77300000Y-73775000D02*
X71200000Y-73775000D01*
X77300000Y-78475000D02*
X77300000Y-73775000D01*
X71200000Y-78475000D02*
X77300000Y-78475000D01*
X71200000Y-73775000D02*
X71200000Y-78475000D01*
X64550000Y-73775000D02*
X64550000Y-78475000D01*
X64550000Y-78475000D02*
X70650000Y-78475000D01*
X70650000Y-78475000D02*
X70650000Y-73775000D01*
X70650000Y-73775000D02*
X64550000Y-73775000D01*
X67100000Y-73775000D02*
X67100000Y-74375000D01*
X67100000Y-74375000D02*
X65150000Y-74375000D01*
X65150000Y-74375000D02*
X65150000Y-77875000D01*
X65150000Y-77875000D02*
X70050000Y-77875000D01*
X70050000Y-77875000D02*
X70050000Y-74375000D01*
X70050000Y-74375000D02*
X68100000Y-74375000D01*
X68100000Y-74375000D02*
X68100000Y-73775000D01*
X64550000Y-75075000D02*
X65150000Y-75075000D01*
X64550000Y-76375000D02*
X65150000Y-76375000D01*
X70650000Y-75075000D02*
X70050000Y-75075000D01*
X70650000Y-76375000D02*
X70050000Y-76375000D01*
X66300000Y-73775000D02*
X66300000Y-73575000D01*
X66300000Y-73575000D02*
X66000000Y-73575000D01*
X66000000Y-73575000D02*
X66000000Y-73775000D01*
X66300000Y-73675000D02*
X66000000Y-73675000D01*
X67500000Y-77875000D02*
X67500000Y-77375000D01*
X67500000Y-77375000D02*
X67700000Y-77375000D01*
X67700000Y-77375000D02*
X67700000Y-77875000D01*
X67600000Y-77875000D02*
X67600000Y-77375000D01*
X65500000Y-73475000D02*
X64250000Y-73475000D01*
X64250000Y-73475000D02*
X64250000Y-74725000D01*
X75550000Y-61575000D02*
X78100000Y-61575000D01*
X75550000Y-63275000D02*
X78100000Y-63275000D01*
X75550000Y-61575000D02*
X75550000Y-63275000D01*
D12*
X69901785Y-68639285D02*
X69473214Y-68639285D01*
X69687500Y-68639285D02*
X69687500Y-67889285D01*
X69616071Y-67996428D01*
X69544642Y-68067857D01*
X69473214Y-68103571D01*
M02*
