G04 #@! TF.GenerationSoftware,KiCad,Pcbnew,(5.1.5-0)*
G04 #@! TF.CreationDate,2020-04-09T11:26:26+02:00*
G04 #@! TF.ProjectId,dxl-fan-module,64786c2d-6661-46e2-9d6d-6f64756c652e,rev?*
G04 #@! TF.SameCoordinates,Original*
G04 #@! TF.FileFunction,Other,User*
%FSLAX46Y46*%
G04 Gerber Fmt 4.6, Leading zero omitted, Abs format (unit mm)*
G04 Created by KiCad (PCBNEW (5.1.5-0)) date 2020-04-09 11:26:26*
%MOMM*%
%LPD*%
G04 APERTURE LIST*
%ADD10C,0.150000*%
%ADD11C,0.125000*%
%ADD12C,0.050000*%
G04 APERTURE END LIST*
D10*
X69850000Y-64000000D02*
X69850000Y-62800000D01*
X72250000Y-64000000D02*
X69850000Y-64000000D01*
X72250000Y-62800000D02*
X72250000Y-64000000D01*
X69850000Y-62800000D02*
X72250000Y-62800000D01*
D11*
X73437500Y-60525000D02*
X73012500Y-60150000D01*
X73437500Y-60525000D02*
X75212500Y-60525000D01*
X73012500Y-59175000D02*
X73012500Y-60150000D01*
X75212500Y-59175000D02*
X73012500Y-59175000D01*
X75212500Y-60525000D02*
X75212500Y-59175000D01*
D12*
X66812500Y-59050000D02*
X70612500Y-59050000D01*
X70612500Y-59050000D02*
X70612500Y-62650000D01*
X70612500Y-62650000D02*
X66812500Y-62650000D01*
X66812500Y-62650000D02*
X66812500Y-59050000D01*
X70588000Y-58850000D02*
X66788000Y-58850000D01*
X66788000Y-58850000D02*
X66788000Y-55250000D01*
X66788000Y-55250000D02*
X70588000Y-55250000D01*
X70588000Y-55250000D02*
X70588000Y-58850000D01*
X68980000Y-64985000D02*
X68980000Y-68185000D01*
X68980000Y-68185000D02*
X67080000Y-68185000D01*
X67080000Y-64985000D02*
X67080000Y-68185000D01*
X68980000Y-64985000D02*
X67080000Y-64985000D01*
X72712500Y-58929411D02*
X72712500Y-60929411D01*
X72712500Y-58929411D02*
X71912500Y-58929411D01*
X71912500Y-60929411D02*
X72712500Y-60929411D01*
X71912500Y-60929411D02*
X71912500Y-58929411D01*
X71912500Y-58650000D02*
X71912500Y-56650000D01*
X71912500Y-58650000D02*
X72712500Y-58650000D01*
X72712500Y-56650000D02*
X71912500Y-56650000D01*
X72712500Y-56650000D02*
X72712500Y-58650000D01*
X71612500Y-58950000D02*
X71612500Y-60950000D01*
X71612500Y-58950000D02*
X70812500Y-58950000D01*
X70812500Y-60950000D02*
X71612500Y-60950000D01*
X70812500Y-60950000D02*
X70812500Y-58950000D01*
X75112500Y-57950000D02*
X73112500Y-57950000D01*
X75112500Y-57950000D02*
X75112500Y-57150000D01*
X73112500Y-57150000D02*
X73112500Y-57950000D01*
X73112500Y-57150000D02*
X75112500Y-57150000D01*
X67800000Y-54225000D02*
X69400000Y-54225000D01*
X67800000Y-54225000D02*
X67800000Y-55125000D01*
X69400000Y-55125000D02*
X69400000Y-54225000D01*
X69400000Y-55125000D02*
X67800000Y-55125000D01*
X67660000Y-62885000D02*
X67660000Y-64485000D01*
X67660000Y-62885000D02*
X66760000Y-62885000D01*
X66760000Y-64485000D02*
X67660000Y-64485000D01*
X66760000Y-64485000D02*
X66760000Y-62885000D01*
X70862500Y-62650000D02*
X70862500Y-61050000D01*
X70862500Y-62650000D02*
X71762500Y-62650000D01*
X71762500Y-61050000D02*
X70862500Y-61050000D01*
X71762500Y-61050000D02*
X71762500Y-62650000D01*
D10*
X69237500Y-69000000D02*
X77887500Y-69000000D01*
X69237500Y-64100000D02*
X69237500Y-69000000D01*
X79137500Y-67750000D02*
X79137500Y-64100000D01*
X79137500Y-64100000D02*
X69237500Y-64100000D01*
X79137500Y-67750000D02*
X77887500Y-69000000D01*
D12*
X81050000Y-69725000D02*
X81050000Y-73125000D01*
X81050000Y-73125000D02*
X77550000Y-73125000D01*
X77550000Y-73125000D02*
X77550000Y-69725000D01*
X77550000Y-69725000D02*
X81050000Y-69725000D01*
X72500000Y-69755000D02*
X76000000Y-69755000D01*
X72500000Y-73155000D02*
X72500000Y-69755000D01*
X76000000Y-73155000D02*
X72500000Y-73155000D01*
X76000000Y-69755000D02*
X76000000Y-73155000D01*
X70900000Y-69775000D02*
X70900000Y-73175000D01*
X70900000Y-73175000D02*
X67400000Y-73175000D01*
X67400000Y-73175000D02*
X67400000Y-69775000D01*
X67400000Y-69775000D02*
X70900000Y-69775000D01*
X84350000Y-73375000D02*
X77450000Y-73375000D01*
X84350000Y-78875000D02*
X84350000Y-73375000D01*
X77450000Y-78875000D02*
X84350000Y-78875000D01*
X77450000Y-73375000D02*
X77450000Y-78875000D01*
X77700000Y-73375000D02*
X70800000Y-73375000D01*
X77700000Y-78875000D02*
X77700000Y-73375000D01*
X70800000Y-78875000D02*
X77700000Y-78875000D01*
X70800000Y-73375000D02*
X70800000Y-78875000D01*
X64150000Y-73375000D02*
X64150000Y-78875000D01*
X64150000Y-78875000D02*
X71050000Y-78875000D01*
X71050000Y-78875000D02*
X71050000Y-73375000D01*
X71050000Y-73375000D02*
X64150000Y-73375000D01*
X75450000Y-61475000D02*
X75450000Y-63375000D01*
X75450000Y-63375000D02*
X78650000Y-63375000D01*
X78650000Y-61475000D02*
X78650000Y-63375000D01*
X75450000Y-61475000D02*
X78650000Y-61475000D01*
M02*
